<?xml version="1.0" encoding="UTF-8" standalone="no"?>
<!DOCTYPE svg PUBLIC "-//W3C//DTD SVG 1.1//EN"
 "http://www.w3.org/Graphics/SVG/1.1/DTD/svg11.dtd">
<!-- Generated by graphviz version 2.40.1 (20161225.0304)
 -->
<!-- Title: compactRelationshipsDiagram Pages: 1 -->
<svg width="459pt" height="281pt"
 viewBox="0.00 0.00 459.00 281.20" xmlns="http://www.w3.org/2000/svg" xmlns:xlink="http://www.w3.org/1999/xlink">
<g id="graph0" class="graph" transform="scale(1 1) rotate(0) translate(4 277.2)">
<title>compactRelationshipsDiagram</title>
<polygon fill="#ffffff" stroke="transparent" points="-4,4 -4,-277.2 455,-277.2 455,4 -4,4"/>
<text text-anchor="middle" x="72.4936" y="-7.3" font-family="Helvetica,sans-Serif" font-size="11.00" fill="#000000">Generated by SchemaSpy</text>
<!-- clinics -->
<g id="node1" class="node">
<title>clinics</title>
<g id="a_node1"><a xlink:href="../../tables/clinics.html" xlink:title="clinics" target="_top">
<polygon fill="#ffffff" stroke="transparent" points="8,-101.2 8,-184.2 100,-184.2 100,-101.2 8,-101.2"/>
<polygon fill="#f5f5f5" stroke="transparent" points="8,-160.7 8,-183.7 100,-183.7 100,-160.7 8,-160.7"/>
<polygon fill="none" stroke="#000000" points="8,-160.7 8,-183.7 100,-183.7 100,-160.7 8,-160.7"/>
<text text-anchor="start" x="13" y="-169.3" font-family="Helvetica,sans-Serif" font-weight="bold" font-size="11.00" fill="#000000">clinics</text>
<text text-anchor="start" x="65.0437" y="-168.8" font-family="Helvetica,sans-Serif" font-size="11.00" fill="#000000">[table]</text>
<polygon fill="none" stroke="#000000" points="8,-138.7 8,-160.7 100,-160.7 100,-138.7 8,-138.7"/>
<image xlink:href="../../images/primaryKeys.png" width="11px" height="12px" preserveAspectRatio="xMinYMin meet" x="13" y="-155.7"/>
<text text-anchor="start" x="28" y="-145.8" font-family="Helvetica,sans-Serif" font-size="11.00" fill="#000000">id</text>
<polygon fill="none" stroke="#000000" points="8,-119.7 8,-138.7 100,-138.7 100,-119.7 8,-119.7"/>
<text text-anchor="start" x="11" y="-125.8" font-family="Helvetica,sans-Serif" font-size="11.00" fill="#000000">...</text>
<polygon fill="#ffffff" stroke="transparent" points="8,-100.7 8,-119.7 43,-119.7 43,-100.7 8,-100.7"/>
<polygon fill="none" stroke="#000000" points="8,-100.7 8,-119.7 43,-119.7 43,-100.7 8,-100.7"/>
<text text-anchor="start" x="11" y="-106.8" font-family="Helvetica,sans-Serif" font-size="11.00" fill="#000000"> &#160;</text>
<polygon fill="#ffffff" stroke="transparent" points="43,-100.7 43,-119.7 67,-119.7 67,-100.7 43,-100.7"/>
<polygon fill="none" stroke="#000000" points="43,-100.7 43,-119.7 67,-119.7 67,-100.7 43,-100.7"/>
<text text-anchor="start" x="57.8862" y="-106.8" font-family="Helvetica,sans-Serif" font-size="11.00" fill="#000000"> &#160;</text>
<polygon fill="#ffffff" stroke="transparent" points="67,-100.7 67,-119.7 100,-119.7 100,-100.7 67,-100.7"/>
<polygon fill="none" stroke="#000000" points="67,-100.7 67,-119.7 100,-119.7 100,-100.7 67,-100.7"/>
<text text-anchor="start" x="81.4053" y="-106.8" font-family="Helvetica,sans-Serif" font-size="11.00" fill="#000000">2 &gt;</text>
</a>
</g>
</g>
<!-- patients -->
<g id="node2" class="node">
<title>patients</title>
<g id="a_node2"><a xlink:href="../../tables/patients.html" xlink:title="patients" target="_top">
<polygon fill="#ffffff" stroke="transparent" points="164.5,-164.2 164.5,-269.2 259.5,-269.2 259.5,-164.2 164.5,-164.2"/>
<polygon fill="#f5f5f5" stroke="transparent" points="165,-245.7 165,-268.7 260,-268.7 260,-245.7 165,-245.7"/>
<polygon fill="none" stroke="#000000" points="165,-245.7 165,-268.7 260,-268.7 260,-245.7 165,-245.7"/>
<text text-anchor="start" x="170" y="-254.3" font-family="Helvetica,sans-Serif" font-weight="bold" font-size="11.00" fill="#000000">patients</text>
<text text-anchor="start" x="225.5219" y="-253.8" font-family="Helvetica,sans-Serif" font-size="11.00" fill="#000000">[table]</text>
<polygon fill="none" stroke="#000000" points="165,-223.7 165,-245.7 260,-245.7 260,-223.7 165,-223.7"/>
<image xlink:href="../../images/primaryKeys.png" width="11px" height="12px" preserveAspectRatio="xMinYMin meet" x="170" y="-240.7"/>
<text text-anchor="start" x="187" y="-230.8" font-family="Helvetica,sans-Serif" font-size="11.00" fill="#000000">id</text>
<polygon fill="none" stroke="#000000" points="165,-201.7 165,-223.7 260,-223.7 260,-201.7 165,-201.7"/>
<image xlink:href="../../images/foreignKeys.png" width="11px" height="12px" preserveAspectRatio="xMinYMin meet" x="170" y="-218.7"/>
<text text-anchor="start" x="187" y="-208.8" font-family="Helvetica,sans-Serif" font-size="11.00" fill="#000000">clinic_id</text>
<polygon fill="none" stroke="#000000" points="165,-182.7 165,-201.7 260,-201.7 260,-182.7 165,-182.7"/>
<text text-anchor="start" x="168" y="-188.8" font-family="Helvetica,sans-Serif" font-size="11.00" fill="#000000">...</text>
<polygon fill="#ffffff" stroke="transparent" points="165,-163.7 165,-182.7 211,-182.7 211,-163.7 165,-163.7"/>
<polygon fill="none" stroke="#000000" points="165,-163.7 165,-182.7 211,-182.7 211,-163.7 165,-163.7"/>
<text text-anchor="start" x="168" y="-169.8" font-family="Helvetica,sans-Serif" font-size="11.00" fill="#000000">&lt; 1</text>
<polygon fill="#ffffff" stroke="transparent" points="211,-163.7 211,-182.7 235,-182.7 235,-163.7 211,-163.7"/>
<polygon fill="none" stroke="#000000" points="211,-163.7 211,-182.7 235,-182.7 235,-163.7 211,-163.7"/>
<text text-anchor="start" x="225.8862" y="-169.8" font-family="Helvetica,sans-Serif" font-size="11.00" fill="#000000"> &#160;</text>
<polygon fill="#ffffff" stroke="transparent" points="235,-163.7 235,-182.7 260,-182.7 260,-163.7 235,-163.7"/>
<polygon fill="none" stroke="#000000" points="235,-163.7 235,-182.7 260,-182.7 260,-163.7 235,-163.7"/>
<text text-anchor="start" x="250.8862" y="-169.8" font-family="Helvetica,sans-Serif" font-size="11.00" fill="#000000"> &#160;</text>
</a>
</g>
</g>
<!-- patients&#45;&gt;clinics -->
<g id="edge2" class="edge">
<title>patients:w&#45;&gt;clinics:e</title>
<path fill="none" stroke="#000000" d="M150.7098,-209.1323C128.0749,-195.8051 134.4167,-149.7 100,-149.7"/>
<polygon fill="#000000" stroke="#000000" points="157.2382,-210.7622 164.128,-216.1928 161.1191,-211.7311 165,-212.7 165,-212.7 165,-212.7 161.1191,-211.7311 165.872,-209.2072 157.2382,-210.7622 157.2382,-210.7622"/>
<ellipse fill="none" stroke="#000000" cx="154.1335" cy="-209.987" rx="3.2" ry="3.2"/>
</g>
<!-- treatments -->
<g id="node3" class="node">
<title>treatments</title>
<g id="a_node3"><a xlink:href="../../tables/treatments.html" xlink:title="treatments" target="_top">
<polygon fill="#ffffff" stroke="transparent" points="324,-60.2 324,-165.2 443,-165.2 443,-60.2 324,-60.2"/>
<polygon fill="#f5f5f5" stroke="transparent" points="324.5,-141.7 324.5,-164.7 443.5,-164.7 443.5,-141.7 324.5,-141.7"/>
<polygon fill="none" stroke="#000000" points="324.5,-141.7 324.5,-164.7 443.5,-164.7 443.5,-141.7 324.5,-141.7"/>
<text text-anchor="start" x="329.5" y="-150.3" font-family="Helvetica,sans-Serif" font-weight="bold" font-size="11.00" fill="#000000">treatments</text>
<text text-anchor="start" x="408.5437" y="-149.8" font-family="Helvetica,sans-Serif" font-size="11.00" fill="#000000">[table]</text>
<polygon fill="none" stroke="#000000" points="324.5,-119.7 324.5,-141.7 443.5,-141.7 443.5,-119.7 324.5,-119.7"/>
<image xlink:href="../../images/primaryKeys.png" width="11px" height="12px" preserveAspectRatio="xMinYMin meet" x="329.5" y="-136.7"/>
<text text-anchor="start" x="344.5" y="-126.8" font-family="Helvetica,sans-Serif" font-size="11.00" fill="#000000">id</text>
<polygon fill="none" stroke="#000000" points="324.5,-97.7 324.5,-119.7 443.5,-119.7 443.5,-97.7 324.5,-97.7"/>
<image xlink:href="../../images/foreignKeys.png" width="11px" height="12px" preserveAspectRatio="xMinYMin meet" x="329.5" y="-114.7"/>
<text text-anchor="start" x="344.5" y="-104.8" font-family="Helvetica,sans-Serif" font-size="11.00" fill="#000000">department_id</text>
<polygon fill="none" stroke="#000000" points="324.5,-78.7 324.5,-97.7 443.5,-97.7 443.5,-78.7 324.5,-78.7"/>
<text text-anchor="start" x="327.5" y="-84.8" font-family="Helvetica,sans-Serif" font-size="11.00" fill="#000000">...</text>
<polygon fill="#ffffff" stroke="transparent" points="324.5,-59.7 324.5,-78.7 382.5,-78.7 382.5,-59.7 324.5,-59.7"/>
<polygon fill="none" stroke="#000000" points="324.5,-59.7 324.5,-78.7 382.5,-78.7 382.5,-59.7 324.5,-59.7"/>
<text text-anchor="start" x="327.5" y="-65.8" font-family="Helvetica,sans-Serif" font-size="11.00" fill="#000000">&lt; 1</text>
<polygon fill="#ffffff" stroke="transparent" points="382.5,-59.7 382.5,-78.7 412.5,-78.7 412.5,-59.7 382.5,-59.7"/>
<polygon fill="none" stroke="#000000" points="382.5,-59.7 382.5,-78.7 412.5,-78.7 412.5,-59.7 382.5,-59.7"/>
<text text-anchor="start" x="403.3862" y="-65.8" font-family="Helvetica,sans-Serif" font-size="11.00" fill="#000000"> &#160;</text>
<polygon fill="#ffffff" stroke="transparent" points="412.5,-59.7 412.5,-78.7 443.5,-78.7 443.5,-59.7 412.5,-59.7"/>
<polygon fill="none" stroke="#000000" points="412.5,-59.7 412.5,-78.7 443.5,-78.7 443.5,-59.7 412.5,-59.7"/>
<text text-anchor="start" x="434.3862" y="-65.8" font-family="Helvetica,sans-Serif" font-size="11.00" fill="#000000"> &#160;</text>
</a>
</g>
</g>
<!-- departments -->
<g id="node4" class="node">
<title>departments</title>
<g id="a_node4"><a xlink:href="../../tables/departments.html" xlink:title="departments" target="_top">
<polygon fill="#ffffff" stroke="transparent" points="149,-38.2 149,-143.2 275,-143.2 275,-38.2 149,-38.2"/>
<polygon fill="#f5f5f5" stroke="transparent" points="149,-119.7 149,-142.7 275,-142.7 275,-119.7 149,-119.7"/>
<polygon fill="none" stroke="#000000" points="149,-119.7 149,-142.7 275,-142.7 275,-119.7 149,-119.7"/>
<text text-anchor="start" x="154" y="-128.3" font-family="Helvetica,sans-Serif" font-weight="bold" font-size="11.00" fill="#000000">departments</text>
<text text-anchor="start" x="240.5219" y="-127.8" font-family="Helvetica,sans-Serif" font-size="11.00" fill="#000000">[table]</text>
<polygon fill="none" stroke="#000000" points="149,-97.7 149,-119.7 275,-119.7 275,-97.7 149,-97.7"/>
<image xlink:href="../../images/primaryKeys.png" width="11px" height="12px" preserveAspectRatio="xMinYMin meet" x="154" y="-114.7"/>
<text text-anchor="start" x="178" y="-104.8" font-family="Helvetica,sans-Serif" font-size="11.00" fill="#000000">id</text>
<polygon fill="none" stroke="#000000" points="149,-75.7 149,-97.7 275,-97.7 275,-75.7 149,-75.7"/>
<image xlink:href="../../images/foreignKeys.png" width="11px" height="12px" preserveAspectRatio="xMinYMin meet" x="154" y="-92.7"/>
<text text-anchor="start" x="178" y="-82.8" font-family="Helvetica,sans-Serif" font-size="11.00" fill="#000000">clinic_id</text>
<polygon fill="none" stroke="#000000" points="149,-56.7 149,-75.7 275,-75.7 275,-56.7 149,-56.7"/>
<text text-anchor="start" x="152" y="-62.8" font-family="Helvetica,sans-Serif" font-size="11.00" fill="#000000">...</text>
<polygon fill="#ffffff" stroke="transparent" points="149,-37.7 149,-56.7 206,-56.7 206,-37.7 149,-37.7"/>
<polygon fill="none" stroke="#000000" points="149,-37.7 149,-56.7 206,-56.7 206,-37.7 149,-37.7"/>
<text text-anchor="start" x="152" y="-43.8" font-family="Helvetica,sans-Serif" font-size="11.00" fill="#000000">&lt; 1</text>
<polygon fill="#ffffff" stroke="transparent" points="206,-37.7 206,-56.7 236,-56.7 236,-37.7 206,-37.7"/>
<polygon fill="none" stroke="#000000" points="206,-37.7 206,-56.7 236,-56.7 236,-37.7 206,-37.7"/>
<text text-anchor="start" x="226.8862" y="-43.8" font-family="Helvetica,sans-Serif" font-size="11.00" fill="#000000"> &#160;</text>
<polygon fill="#ffffff" stroke="transparent" points="236,-37.7 236,-56.7 275,-56.7 275,-37.7 236,-37.7"/>
<polygon fill="none" stroke="#000000" points="236,-37.7 236,-56.7 275,-56.7 275,-37.7 236,-37.7"/>
<text text-anchor="start" x="256.4053" y="-43.8" font-family="Helvetica,sans-Serif" font-size="11.00" fill="#000000">1 &gt;</text>
</a>
</g>
</g>
<!-- treatments&#45;&gt;departments -->
<g id="edge3" class="edge">
<title>treatments:w&#45;&gt;departments:e</title>
<path fill="none" stroke="#000000" d="M309.8428,-108.7C298.4139,-108.7 291.1563,-108.7 275,-108.7"/>
<polygon fill="#000000" stroke="#000000" points="316.5,-108.7001 324.5,-112.3 320.5,-108.7 324.5,-108.7 324.5,-108.7 324.5,-108.7 320.5,-108.7 324.5,-105.1 316.5,-108.7001 316.5,-108.7001"/>
<ellipse fill="none" stroke="#000000" cx="313.3" cy="-108.7001" rx="3.2" ry="3.2"/>
</g>
<!-- departments&#45;&gt;clinics -->
<g id="edge1" class="edge">
<title>departments:w&#45;&gt;clinics:e</title>
<path fill="none" stroke="#000000" d="M135.2151,-91.6435C119.3751,-106.4952 129.3754,-149.7 100,-149.7"/>
<polygon fill="#000000" stroke="#000000" points="141.4696,-89.4006 150.2153,-90.0887 145.2348,-88.0503 149,-86.7 149,-86.7 149,-86.7 145.2348,-88.0503 147.7847,-83.3113 141.4696,-89.4006 141.4696,-89.4006"/>
<ellipse fill="none" stroke="#000000" cx="138.4574" cy="-90.4808" rx="3.2" ry="3.2"/>
</g>
</g>
</svg>
