<?xml version="1.0" encoding="UTF-8" standalone="no"?>
<!DOCTYPE svg PUBLIC "-//W3C//DTD SVG 1.1//EN"
 "http://www.w3.org/Graphics/SVG/1.1/DTD/svg11.dtd">
<!-- Generated by graphviz version 2.40.1 (20161225.0304)
 -->
<!-- Title: largeRelationshipsDiagram Pages: 1 -->
<svg width="459pt" height="353pt"
 viewBox="0.00 0.00 459.00 353.20" xmlns="http://www.w3.org/2000/svg" xmlns:xlink="http://www.w3.org/1999/xlink">
<g id="graph0" class="graph" transform="scale(1 1) rotate(0) translate(4 349.2)">
<title>largeRelationshipsDiagram</title>
<polygon fill="#ffffff" stroke="transparent" points="-4,4 -4,-349.2 455,-349.2 455,4 -4,4"/>
<text text-anchor="middle" x="72.4936" y="-7.3" font-family="Helvetica,sans-Serif" font-size="11.00" fill="#000000">Generated by SchemaSpy</text>
<!-- clinics -->
<g id="node1" class="node">
<title>clinics</title>
<g id="a_node1"><a xlink:href="../../tables/clinics.html" xlink:title="clinics" target="_top">
<polygon fill="#ffffff" stroke="transparent" points="8,-91.2 8,-199.2 100,-199.2 100,-91.2 8,-91.2"/>
<polygon fill="#f5f5f5" stroke="transparent" points="8,-176.2 8,-199.2 100,-199.2 100,-176.2 8,-176.2"/>
<polygon fill="none" stroke="#000000" points="8,-176.2 8,-199.2 100,-199.2 100,-176.2 8,-176.2"/>
<text text-anchor="start" x="13" y="-184.8" font-family="Helvetica,sans-Serif" font-weight="bold" font-size="11.00" fill="#000000">clinics</text>
<text text-anchor="start" x="65.0437" y="-184.3" font-family="Helvetica,sans-Serif" font-size="11.00" fill="#000000">[table]</text>
<polygon fill="none" stroke="#000000" points="8,-154.2 8,-176.2 100,-176.2 100,-154.2 8,-154.2"/>
<image xlink:href="../../images/primaryKeys.png" width="11px" height="12px" preserveAspectRatio="xMinYMin meet" x="13" y="-171.2"/>
<text text-anchor="start" x="28" y="-161.3" font-family="Helvetica,sans-Serif" font-size="11.00" fill="#000000">id</text>
<polygon fill="none" stroke="#000000" points="8,-132.2 8,-154.2 100,-154.2 100,-132.2 8,-132.2"/>
<text text-anchor="start" x="28" y="-139.3" font-family="Helvetica,sans-Serif" font-size="11.00" fill="#000000">name</text>
<polygon fill="none" stroke="#000000" points="8,-110.2 8,-132.2 100,-132.2 100,-110.2 8,-110.2"/>
<text text-anchor="start" x="28" y="-117.3" font-family="Helvetica,sans-Serif" font-size="11.00" fill="#000000">created_at</text>
<polygon fill="#ffffff" stroke="transparent" points="8,-91.2 8,-110.2 43,-110.2 43,-91.2 8,-91.2"/>
<polygon fill="none" stroke="#000000" points="8,-91.2 8,-110.2 43,-110.2 43,-91.2 8,-91.2"/>
<text text-anchor="start" x="11" y="-97.3" font-family="Helvetica,sans-Serif" font-size="11.00" fill="#000000"> &#160;</text>
<polygon fill="#ffffff" stroke="transparent" points="43,-91.2 43,-110.2 67,-110.2 67,-91.2 43,-91.2"/>
<polygon fill="none" stroke="#000000" points="43,-91.2 43,-110.2 67,-110.2 67,-91.2 43,-91.2"/>
<text text-anchor="start" x="57.8862" y="-97.3" font-family="Helvetica,sans-Serif" font-size="11.00" fill="#000000"> &#160;</text>
<polygon fill="#ffffff" stroke="transparent" points="67,-91.2 67,-110.2 100,-110.2 100,-91.2 67,-91.2"/>
<polygon fill="none" stroke="#000000" points="67,-91.2 67,-110.2 100,-110.2 100,-91.2 67,-91.2"/>
<text text-anchor="start" x="81.4053" y="-97.3" font-family="Helvetica,sans-Serif" font-size="11.00" fill="#000000">2 &gt;</text>
</a>
</g>
</g>
<!-- patients -->
<g id="node2" class="node">
<title>patients</title>
<g id="a_node2"><a xlink:href="../../tables/patients.html" xlink:title="patients" target="_top">
<polygon fill="#ffffff" stroke="transparent" points="164.5,-189.2 164.5,-341.2 259.5,-341.2 259.5,-189.2 164.5,-189.2"/>
<polygon fill="#f5f5f5" stroke="transparent" points="165,-318.2 165,-341.2 260,-341.2 260,-318.2 165,-318.2"/>
<polygon fill="none" stroke="#000000" points="165,-318.2 165,-341.2 260,-341.2 260,-318.2 165,-318.2"/>
<text text-anchor="start" x="170" y="-326.8" font-family="Helvetica,sans-Serif" font-weight="bold" font-size="11.00" fill="#000000">patients</text>
<text text-anchor="start" x="225.5219" y="-326.3" font-family="Helvetica,sans-Serif" font-size="11.00" fill="#000000">[table]</text>
<polygon fill="none" stroke="#000000" points="165,-296.2 165,-318.2 260,-318.2 260,-296.2 165,-296.2"/>
<image xlink:href="../../images/primaryKeys.png" width="11px" height="12px" preserveAspectRatio="xMinYMin meet" x="170" y="-313.2"/>
<text text-anchor="start" x="187" y="-303.3" font-family="Helvetica,sans-Serif" font-size="11.00" fill="#000000">id</text>
<polygon fill="none" stroke="#000000" points="165,-274.2 165,-296.2 260,-296.2 260,-274.2 165,-274.2"/>
<text text-anchor="start" x="187" y="-281.3" font-family="Helvetica,sans-Serif" font-size="11.00" fill="#000000">name</text>
<polygon fill="none" stroke="#000000" points="165,-252.2 165,-274.2 260,-274.2 260,-252.2 165,-252.2"/>
<text text-anchor="start" x="187" y="-259.3" font-family="Helvetica,sans-Serif" font-size="11.00" fill="#000000">sex</text>
<polygon fill="none" stroke="#000000" points="165,-230.2 165,-252.2 260,-252.2 260,-230.2 165,-230.2"/>
<image xlink:href="../../images/foreignKeys.png" width="11px" height="12px" preserveAspectRatio="xMinYMin meet" x="170" y="-247.2"/>
<text text-anchor="start" x="187" y="-237.3" font-family="Helvetica,sans-Serif" font-size="11.00" fill="#000000">clinic_id</text>
<polygon fill="none" stroke="#000000" points="165,-208.2 165,-230.2 260,-230.2 260,-208.2 165,-208.2"/>
<text text-anchor="start" x="187" y="-215.3" font-family="Helvetica,sans-Serif" font-size="11.00" fill="#000000">created_at</text>
<polygon fill="#ffffff" stroke="transparent" points="165,-189.2 165,-208.2 211,-208.2 211,-189.2 165,-189.2"/>
<polygon fill="none" stroke="#000000" points="165,-189.2 165,-208.2 211,-208.2 211,-189.2 165,-189.2"/>
<text text-anchor="start" x="168" y="-195.3" font-family="Helvetica,sans-Serif" font-size="11.00" fill="#000000">&lt; 1</text>
<polygon fill="#ffffff" stroke="transparent" points="211,-189.2 211,-208.2 235,-208.2 235,-189.2 211,-189.2"/>
<polygon fill="none" stroke="#000000" points="211,-189.2 211,-208.2 235,-208.2 235,-189.2 211,-189.2"/>
<text text-anchor="start" x="225.8862" y="-195.3" font-family="Helvetica,sans-Serif" font-size="11.00" fill="#000000"> &#160;</text>
<polygon fill="#ffffff" stroke="transparent" points="235,-189.2 235,-208.2 260,-208.2 260,-189.2 235,-189.2"/>
<polygon fill="none" stroke="#000000" points="235,-189.2 235,-208.2 260,-208.2 260,-189.2 235,-189.2"/>
<text text-anchor="start" x="250.8862" y="-195.3" font-family="Helvetica,sans-Serif" font-size="11.00" fill="#000000"> &#160;</text>
</a>
</g>
</g>
<!-- patients&#45;&gt;clinics -->
<g id="edge2" class="edge">
<title>patients:w&#45;&gt;clinics:e</title>
<path fill="none" stroke="#000000" d="M150.9257,-237.737C125.5777,-222.8691 138.7172,-165.2 100,-165.2"/>
<polygon fill="#000000" stroke="#000000" points="157.2317,-239.2885 164.1398,-244.6957 161.1158,-240.2443 165,-241.2 165,-241.2 165,-241.2 161.1158,-240.2443 165.8602,-237.7043 157.2317,-239.2885 157.2317,-239.2885"/>
<ellipse fill="none" stroke="#000000" cx="154.1244" cy="-238.524" rx="3.2" ry="3.2"/>
</g>
<!-- treatments -->
<g id="node3" class="node">
<title>treatments</title>
<g id="a_node3"><a xlink:href="../../tables/treatments.html" xlink:title="treatments" target="_top">
<polygon fill="#ffffff" stroke="transparent" points="324,-82.2 324,-212.2 443,-212.2 443,-82.2 324,-82.2"/>
<polygon fill="#f5f5f5" stroke="transparent" points="324.5,-189.2 324.5,-212.2 443.5,-212.2 443.5,-189.2 324.5,-189.2"/>
<polygon fill="none" stroke="#000000" points="324.5,-189.2 324.5,-212.2 443.5,-212.2 443.5,-189.2 324.5,-189.2"/>
<text text-anchor="start" x="329.5" y="-197.8" font-family="Helvetica,sans-Serif" font-weight="bold" font-size="11.00" fill="#000000">treatments</text>
<text text-anchor="start" x="408.5437" y="-197.3" font-family="Helvetica,sans-Serif" font-size="11.00" fill="#000000">[table]</text>
<polygon fill="none" stroke="#000000" points="324.5,-167.2 324.5,-189.2 443.5,-189.2 443.5,-167.2 324.5,-167.2"/>
<image xlink:href="../../images/primaryKeys.png" width="11px" height="12px" preserveAspectRatio="xMinYMin meet" x="329.5" y="-184.2"/>
<text text-anchor="start" x="344.5" y="-174.3" font-family="Helvetica,sans-Serif" font-size="11.00" fill="#000000">id</text>
<polygon fill="none" stroke="#000000" points="324.5,-145.2 324.5,-167.2 443.5,-167.2 443.5,-145.2 324.5,-145.2"/>
<text text-anchor="start" x="344.5" y="-152.3" font-family="Helvetica,sans-Serif" font-size="11.00" fill="#000000">name</text>
<polygon fill="none" stroke="#000000" points="324.5,-123.2 324.5,-145.2 443.5,-145.2 443.5,-123.2 324.5,-123.2"/>
<image xlink:href="../../images/foreignKeys.png" width="11px" height="12px" preserveAspectRatio="xMinYMin meet" x="329.5" y="-140.2"/>
<text text-anchor="start" x="344.5" y="-130.3" font-family="Helvetica,sans-Serif" font-size="11.00" fill="#000000">department_id</text>
<polygon fill="none" stroke="#000000" points="324.5,-101.2 324.5,-123.2 443.5,-123.2 443.5,-101.2 324.5,-101.2"/>
<text text-anchor="start" x="344.5" y="-108.3" font-family="Helvetica,sans-Serif" font-size="11.00" fill="#000000">created_at</text>
<polygon fill="#ffffff" stroke="transparent" points="324.5,-82.2 324.5,-101.2 382.5,-101.2 382.5,-82.2 324.5,-82.2"/>
<polygon fill="none" stroke="#000000" points="324.5,-82.2 324.5,-101.2 382.5,-101.2 382.5,-82.2 324.5,-82.2"/>
<text text-anchor="start" x="327.5" y="-88.3" font-family="Helvetica,sans-Serif" font-size="11.00" fill="#000000">&lt; 1</text>
<polygon fill="#ffffff" stroke="transparent" points="382.5,-82.2 382.5,-101.2 412.5,-101.2 412.5,-82.2 382.5,-82.2"/>
<polygon fill="none" stroke="#000000" points="382.5,-82.2 382.5,-101.2 412.5,-101.2 412.5,-82.2 382.5,-82.2"/>
<text text-anchor="start" x="403.3862" y="-88.3" font-family="Helvetica,sans-Serif" font-size="11.00" fill="#000000"> &#160;</text>
<polygon fill="#ffffff" stroke="transparent" points="412.5,-82.2 412.5,-101.2 443.5,-101.2 443.5,-82.2 412.5,-82.2"/>
<polygon fill="none" stroke="#000000" points="412.5,-82.2 412.5,-101.2 443.5,-101.2 443.5,-82.2 412.5,-82.2"/>
<text text-anchor="start" x="434.3862" y="-88.3" font-family="Helvetica,sans-Serif" font-size="11.00" fill="#000000"> &#160;</text>
</a>
</g>
</g>
<!-- departments -->
<g id="node4" class="node">
<title>departments</title>
<g id="a_node4"><a xlink:href="../../tables/departments.html" xlink:title="departments" target="_top">
<polygon fill="#ffffff" stroke="transparent" points="149,-38.2 149,-168.2 275,-168.2 275,-38.2 149,-38.2"/>
<polygon fill="#f5f5f5" stroke="transparent" points="149,-145.2 149,-168.2 275,-168.2 275,-145.2 149,-145.2"/>
<polygon fill="none" stroke="#000000" points="149,-145.2 149,-168.2 275,-168.2 275,-145.2 149,-145.2"/>
<text text-anchor="start" x="154" y="-153.8" font-family="Helvetica,sans-Serif" font-weight="bold" font-size="11.00" fill="#000000">departments</text>
<text text-anchor="start" x="240.5219" y="-153.3" font-family="Helvetica,sans-Serif" font-size="11.00" fill="#000000">[table]</text>
<polygon fill="none" stroke="#000000" points="149,-123.2 149,-145.2 275,-145.2 275,-123.2 149,-123.2"/>
<image xlink:href="../../images/primaryKeys.png" width="11px" height="12px" preserveAspectRatio="xMinYMin meet" x="154" y="-140.2"/>
<text text-anchor="start" x="178" y="-130.3" font-family="Helvetica,sans-Serif" font-size="11.00" fill="#000000">id</text>
<polygon fill="none" stroke="#000000" points="149,-101.2 149,-123.2 275,-123.2 275,-101.2 149,-101.2"/>
<text text-anchor="start" x="178" y="-108.3" font-family="Helvetica,sans-Serif" font-size="11.00" fill="#000000">name</text>
<polygon fill="none" stroke="#000000" points="149,-79.2 149,-101.2 275,-101.2 275,-79.2 149,-79.2"/>
<image xlink:href="../../images/foreignKeys.png" width="11px" height="12px" preserveAspectRatio="xMinYMin meet" x="154" y="-96.2"/>
<text text-anchor="start" x="178" y="-86.3" font-family="Helvetica,sans-Serif" font-size="11.00" fill="#000000">clinic_id</text>
<polygon fill="none" stroke="#000000" points="149,-57.2 149,-79.2 275,-79.2 275,-57.2 149,-57.2"/>
<text text-anchor="start" x="178" y="-64.3" font-family="Helvetica,sans-Serif" font-size="11.00" fill="#000000">created_at</text>
<polygon fill="#ffffff" stroke="transparent" points="149,-38.2 149,-57.2 206,-57.2 206,-38.2 149,-38.2"/>
<polygon fill="none" stroke="#000000" points="149,-38.2 149,-57.2 206,-57.2 206,-38.2 149,-38.2"/>
<text text-anchor="start" x="152" y="-44.3" font-family="Helvetica,sans-Serif" font-size="11.00" fill="#000000">&lt; 1</text>
<polygon fill="#ffffff" stroke="transparent" points="206,-38.2 206,-57.2 236,-57.2 236,-38.2 206,-38.2"/>
<polygon fill="none" stroke="#000000" points="206,-38.2 206,-57.2 236,-57.2 236,-38.2 206,-38.2"/>
<text text-anchor="start" x="226.8862" y="-44.3" font-family="Helvetica,sans-Serif" font-size="11.00" fill="#000000"> &#160;</text>
<polygon fill="#ffffff" stroke="transparent" points="236,-38.2 236,-57.2 275,-57.2 275,-38.2 236,-38.2"/>
<polygon fill="none" stroke="#000000" points="236,-38.2 236,-57.2 275,-57.2 275,-38.2 236,-38.2"/>
<text text-anchor="start" x="256.4053" y="-44.3" font-family="Helvetica,sans-Serif" font-size="11.00" fill="#000000">1 &gt;</text>
</a>
</g>
</g>
<!-- treatments&#45;&gt;departments -->
<g id="edge3" class="edge">
<title>treatments:w&#45;&gt;departments:e</title>
<path fill="none" stroke="#000000" d="M309.8428,-134.2C298.4139,-134.2 291.1563,-134.2 275,-134.2"/>
<polygon fill="#000000" stroke="#000000" points="316.5,-134.2001 324.5,-137.8 320.5,-134.2 324.5,-134.2 324.5,-134.2 324.5,-134.2 320.5,-134.2 324.5,-130.6 316.5,-134.2001 316.5,-134.2001"/>
<ellipse fill="none" stroke="#000000" cx="313.3" cy="-134.2001" rx="3.2" ry="3.2"/>
</g>
<!-- departments&#45;&gt;clinics -->
<g id="edge1" class="edge">
<title>departments:w&#45;&gt;clinics:e</title>
<path fill="none" stroke="#000000" d="M135.2094,-94.8916C116.8818,-111.3109 133.751,-165.2 100,-165.2"/>
<polygon fill="#000000" stroke="#000000" points="141.4263,-92.7766 150.1595,-93.6082 145.2131,-91.4883 149,-90.2 149,-90.2 149,-90.2 145.2131,-91.4883 147.8405,-86.7918 141.4263,-92.7766 141.4263,-92.7766"/>
<ellipse fill="none" stroke="#000000" cx="138.3968" cy="-93.8073" rx="3.2" ry="3.2"/>
</g>
</g>
</svg>
