<?xml version="1.0" encoding="UTF-8" standalone="no"?>
<!DOCTYPE svg PUBLIC "-//W3C//DTD SVG 1.1//EN"
 "http://www.w3.org/Graphics/SVG/1.1/DTD/svg11.dtd">
<!-- Generated by graphviz version 2.40.1 (20161225.0304)
 -->
<!-- Title: twoDegreesRelationshipsDiagram Pages: 1 -->
<svg width="542pt" height="281pt"
 viewBox="0.00 0.00 542.00 281.20" xmlns="http://www.w3.org/2000/svg" xmlns:xlink="http://www.w3.org/1999/xlink">
<g id="graph0" class="graph" transform="scale(1 1) rotate(0) translate(4 277.2)">
<title>twoDegreesRelationshipsDiagram</title>
<polygon fill="#ffffff" stroke="transparent" points="-4,4 -4,-277.2 538,-277.2 538,4 -4,4"/>
<text text-anchor="middle" x="72.4936" y="-7.3" font-family="Helvetica,sans-Serif" font-size="11.00" fill="#000000">Generated by SchemaSpy</text>
<!-- departments -->
<g id="node1" class="node">
<title>departments</title>
<g id="a_node1"><a xlink:href="../../tables/departments.html" xlink:title="departments" target="_top">
<polygon fill="#ffffff" stroke="transparent" points="237,-38.2 237,-143.2 363,-143.2 363,-38.2 237,-38.2"/>
<polygon fill="#f5f5f5" stroke="transparent" points="237,-119.7 237,-142.7 363,-142.7 363,-119.7 237,-119.7"/>
<polygon fill="none" stroke="#000000" points="237,-119.7 237,-142.7 363,-142.7 363,-119.7 237,-119.7"/>
<text text-anchor="start" x="242" y="-128.3" font-family="Helvetica,sans-Serif" font-weight="bold" font-size="11.00" fill="#000000">departments</text>
<text text-anchor="start" x="328.5219" y="-127.8" font-family="Helvetica,sans-Serif" font-size="11.00" fill="#000000">[table]</text>
<polygon fill="none" stroke="#000000" points="237,-97.7 237,-119.7 363,-119.7 363,-97.7 237,-97.7"/>
<image xlink:href="../../images/primaryKeys.png" width="11px" height="12px" preserveAspectRatio="xMinYMin meet" x="242" y="-114.7"/>
<text text-anchor="start" x="266" y="-104.8" font-family="Helvetica,sans-Serif" font-size="11.00" fill="#000000">id</text>
<polygon fill="none" stroke="#000000" points="237,-75.7 237,-97.7 363,-97.7 363,-75.7 237,-75.7"/>
<image xlink:href="../../images/foreignKeys.png" width="11px" height="12px" preserveAspectRatio="xMinYMin meet" x="242" y="-92.7"/>
<text text-anchor="start" x="266" y="-82.8" font-family="Helvetica,sans-Serif" font-size="11.00" fill="#000000">clinic_id</text>
<polygon fill="none" stroke="#000000" points="237,-56.7 237,-75.7 363,-75.7 363,-56.7 237,-56.7"/>
<text text-anchor="start" x="240" y="-62.8" font-family="Helvetica,sans-Serif" font-size="11.00" fill="#000000">...</text>
<polygon fill="#ffffff" stroke="transparent" points="237,-37.7 237,-56.7 294,-56.7 294,-37.7 237,-37.7"/>
<polygon fill="none" stroke="#000000" points="237,-37.7 237,-56.7 294,-56.7 294,-37.7 237,-37.7"/>
<text text-anchor="start" x="240" y="-43.8" font-family="Helvetica,sans-Serif" font-size="11.00" fill="#000000">&lt; 1</text>
<polygon fill="#ffffff" stroke="transparent" points="294,-37.7 294,-56.7 324,-56.7 324,-37.7 294,-37.7"/>
<polygon fill="none" stroke="#000000" points="294,-37.7 294,-56.7 324,-56.7 324,-37.7 294,-37.7"/>
<text text-anchor="start" x="314.8862" y="-43.8" font-family="Helvetica,sans-Serif" font-size="11.00" fill="#000000"> &#160;</text>
<polygon fill="#ffffff" stroke="transparent" points="324,-37.7 324,-56.7 363,-56.7 363,-37.7 324,-37.7"/>
<polygon fill="none" stroke="#000000" points="324,-37.7 324,-56.7 363,-56.7 363,-37.7 324,-37.7"/>
<text text-anchor="start" x="344.4053" y="-43.8" font-family="Helvetica,sans-Serif" font-size="11.00" fill="#000000">1 &gt;</text>
</a>
</g>
</g>
<!-- clinics -->
<g id="node2" class="node">
<title>clinics</title>
<g id="a_node2"><a xlink:href="../../tables/clinics.html" xlink:title="clinics" target="_top">
<polygon fill="#ffffff" stroke="transparent" points="8,-73.7 8,-185.7 188,-185.7 188,-73.7 8,-73.7"/>
<polygon fill="#f5f5f5" stroke="transparent" points="10,-160.7 10,-183.7 186,-183.7 186,-160.7 10,-160.7"/>
<polygon fill="none" stroke="#000000" points="10,-160.7 10,-183.7 186,-183.7 186,-160.7 10,-160.7"/>
<text text-anchor="start" x="15" y="-169.3" font-family="Helvetica,sans-Serif" font-weight="bold" font-size="11.00" fill="#000000">clinics</text>
<text text-anchor="start" x="151.0437" y="-168.8" font-family="Helvetica,sans-Serif" font-size="11.00" fill="#000000">[table]</text>
<polygon fill="none" stroke="#000000" points="10,-138.7 10,-160.7 102,-160.7 102,-138.7 10,-138.7"/>
<image xlink:href="../../images/primaryKeys.png" width="11px" height="12px" preserveAspectRatio="xMinYMin meet" x="15" y="-155.7"/>
<text text-anchor="start" x="30" y="-145.8" font-family="Helvetica,sans-Serif" font-size="11.00" fill="#000000">id</text>
<polygon fill="none" stroke="#000000" points="102,-138.7 102,-160.7 186,-160.7 186,-138.7 102,-138.7"/>
<text text-anchor="start" x="105" y="-146.4" font-family="Helvetica,sans-Serif" font-size="11.00" fill="#000000">serial[10]</text>
<polygon fill="none" stroke="#000000" points="10,-116.7 10,-138.7 102,-138.7 102,-116.7 10,-116.7"/>
<text text-anchor="start" x="30" y="-123.8" font-family="Helvetica,sans-Serif" font-size="11.00" fill="#000000">name</text>
<polygon fill="none" stroke="#000000" points="102,-116.7 102,-138.7 186,-138.7 186,-116.7 102,-116.7"/>
<text text-anchor="start" x="105" y="-124.4" font-family="Helvetica,sans-Serif" font-size="11.00" fill="#000000">varchar[256]</text>
<polygon fill="none" stroke="#000000" points="10,-94.7 10,-116.7 102,-116.7 102,-94.7 10,-94.7"/>
<text text-anchor="start" x="30" y="-101.8" font-family="Helvetica,sans-Serif" font-size="11.00" fill="#000000">created_at</text>
<polygon fill="none" stroke="#000000" points="102,-94.7 102,-116.7 186,-116.7 186,-94.7 102,-94.7"/>
<text text-anchor="start" x="104.8807" y="-102.4" font-family="Helvetica,sans-Serif" font-size="11.00" fill="#000000">timestamp[29,6]</text>
<polygon fill="#ffffff" stroke="transparent" points="10,-75.7 10,-94.7 60,-94.7 60,-75.7 10,-75.7"/>
<polygon fill="none" stroke="#000000" points="10,-75.7 10,-94.7 60,-94.7 60,-75.7 10,-75.7"/>
<text text-anchor="start" x="13" y="-81.8" font-family="Helvetica,sans-Serif" font-size="11.00" fill="#000000">&lt; 0</text>
<polygon fill="#ffffff" stroke="transparent" points="60,-75.7 60,-94.7 102,-94.7 102,-75.7 60,-75.7"/>
<polygon fill="none" stroke="#000000" points="60,-75.7 60,-94.7 102,-94.7 102,-75.7 60,-75.7"/>
<text text-anchor="start" x="92.8862" y="-81.8" font-family="Helvetica,sans-Serif" font-size="11.00" fill="#000000"> &#160;</text>
<polygon fill="#ffffff" stroke="transparent" points="102,-75.7 102,-94.7 186,-94.7 186,-75.7 102,-75.7"/>
<polygon fill="none" stroke="#000000" points="102,-75.7 102,-94.7 186,-94.7 186,-75.7 102,-75.7"/>
<text text-anchor="start" x="167.4053" y="-81.8" font-family="Helvetica,sans-Serif" font-size="11.00" fill="#000000">2 &gt;</text>
<polygon fill="none" stroke="#000000" stroke-width="2" points="9,-74.7 9,-184.7 187,-184.7 187,-74.7 9,-74.7"/>
</a>
</g>
</g>
<!-- departments&#45;&gt;clinics -->
<g id="edge1" class="edge">
<title>departments:w&#45;&gt;clinics:e</title>
<path fill="none" stroke="#000000" d="M222.9033,-91.6435C206.525,-106.4952 215.8329,-149.7 186,-149.7"/>
<polygon fill="#000000" stroke="#000000" points="229.4507,-89.3474 238.1913,-90.0972 233.2254,-88.0237 237,-86.7 237,-86.7 237,-86.7 233.2254,-88.0237 235.8087,-83.3028 229.4507,-89.3474 229.4507,-89.3474"/>
<ellipse fill="none" stroke="#000000" cx="226.431" cy="-90.4064" rx="3.2" ry="3.2"/>
</g>
<!-- patients -->
<g id="node3" class="node">
<title>patients</title>
<g id="a_node3"><a xlink:href="../../tables/patients.html" xlink:title="patients" target="_top">
<polygon fill="#ffffff" stroke="transparent" points="252.5,-164.2 252.5,-269.2 347.5,-269.2 347.5,-164.2 252.5,-164.2"/>
<polygon fill="#f5f5f5" stroke="transparent" points="253,-245.7 253,-268.7 348,-268.7 348,-245.7 253,-245.7"/>
<polygon fill="none" stroke="#000000" points="253,-245.7 253,-268.7 348,-268.7 348,-245.7 253,-245.7"/>
<text text-anchor="start" x="258" y="-254.3" font-family="Helvetica,sans-Serif" font-weight="bold" font-size="11.00" fill="#000000">patients</text>
<text text-anchor="start" x="313.5219" y="-253.8" font-family="Helvetica,sans-Serif" font-size="11.00" fill="#000000">[table]</text>
<polygon fill="none" stroke="#000000" points="253,-223.7 253,-245.7 348,-245.7 348,-223.7 253,-223.7"/>
<image xlink:href="../../images/primaryKeys.png" width="11px" height="12px" preserveAspectRatio="xMinYMin meet" x="258" y="-240.7"/>
<text text-anchor="start" x="275" y="-230.8" font-family="Helvetica,sans-Serif" font-size="11.00" fill="#000000">id</text>
<polygon fill="none" stroke="#000000" points="253,-201.7 253,-223.7 348,-223.7 348,-201.7 253,-201.7"/>
<image xlink:href="../../images/foreignKeys.png" width="11px" height="12px" preserveAspectRatio="xMinYMin meet" x="258" y="-218.7"/>
<text text-anchor="start" x="275" y="-208.8" font-family="Helvetica,sans-Serif" font-size="11.00" fill="#000000">clinic_id</text>
<polygon fill="none" stroke="#000000" points="253,-182.7 253,-201.7 348,-201.7 348,-182.7 253,-182.7"/>
<text text-anchor="start" x="256" y="-188.8" font-family="Helvetica,sans-Serif" font-size="11.00" fill="#000000">...</text>
<polygon fill="#ffffff" stroke="transparent" points="253,-163.7 253,-182.7 299,-182.7 299,-163.7 253,-163.7"/>
<polygon fill="none" stroke="#000000" points="253,-163.7 253,-182.7 299,-182.7 299,-163.7 253,-163.7"/>
<text text-anchor="start" x="256" y="-169.8" font-family="Helvetica,sans-Serif" font-size="11.00" fill="#000000">&lt; 1</text>
<polygon fill="#ffffff" stroke="transparent" points="299,-163.7 299,-182.7 323,-182.7 323,-163.7 299,-163.7"/>
<polygon fill="none" stroke="#000000" points="299,-163.7 299,-182.7 323,-182.7 323,-163.7 299,-163.7"/>
<text text-anchor="start" x="313.8862" y="-169.8" font-family="Helvetica,sans-Serif" font-size="11.00" fill="#000000"> &#160;</text>
<polygon fill="#ffffff" stroke="transparent" points="323,-163.7 323,-182.7 348,-182.7 348,-163.7 323,-163.7"/>
<polygon fill="none" stroke="#000000" points="323,-163.7 323,-182.7 348,-182.7 348,-163.7 323,-163.7"/>
<text text-anchor="start" x="338.8862" y="-169.8" font-family="Helvetica,sans-Serif" font-size="11.00" fill="#000000"> &#160;</text>
</a>
</g>
</g>
<!-- patients&#45;&gt;clinics -->
<g id="edge2" class="edge">
<title>patients:w&#45;&gt;clinics:e</title>
<path fill="none" stroke="#000000" d="M238.7467,-209.3128C215.1737,-196.2271 221.1264,-149.7 186,-149.7"/>
<polygon fill="#000000" stroke="#000000" points="245.2167,-210.8504 252.1677,-216.2025 249.1084,-211.7752 253,-212.7 253,-212.7 253,-212.7 249.1084,-211.7752 253.8323,-209.1975 245.2167,-210.8504 245.2167,-210.8504"/>
<ellipse fill="none" stroke="#000000" cx="242.1034" cy="-210.1105" rx="3.2" ry="3.2"/>
</g>
<!-- treatments -->
<g id="node4" class="node">
<title>treatments</title>
<g id="a_node4"><a xlink:href="../../tables/treatments.html" xlink:title="treatments" target="_top">
<polygon fill="#ffffff" stroke="transparent" points="412,-81.2 412,-142.2 526,-142.2 526,-81.2 412,-81.2"/>
<polygon fill="#f5f5f5" stroke="transparent" points="412,-118.7 412,-141.7 526,-141.7 526,-118.7 412,-118.7"/>
<polygon fill="none" stroke="#000000" points="412,-118.7 412,-141.7 526,-141.7 526,-118.7 412,-118.7"/>
<text text-anchor="start" x="417" y="-127.3" font-family="Helvetica,sans-Serif" font-weight="bold" font-size="11.00" fill="#000000">treatments</text>
<text text-anchor="start" x="491.5219" y="-126.8" font-family="Helvetica,sans-Serif" font-size="11.00" fill="#000000">[table]</text>
<polygon fill="none" stroke="#000000" points="412,-99.7 412,-118.7 526,-118.7 526,-99.7 412,-99.7"/>
<text text-anchor="start" x="415" y="-105.8" font-family="Helvetica,sans-Serif" font-size="11.00" fill="#000000">...</text>
<polygon fill="#ffffff" stroke="transparent" points="412,-80.7 412,-99.7 467,-99.7 467,-80.7 412,-80.7"/>
<polygon fill="none" stroke="#000000" points="412,-80.7 412,-99.7 467,-99.7 467,-80.7 412,-80.7"/>
<text text-anchor="start" x="415" y="-86.8" font-family="Helvetica,sans-Serif" font-size="11.00" fill="#000000">&lt; 1</text>
<polygon fill="#ffffff" stroke="transparent" points="467,-80.7 467,-99.7 496,-99.7 496,-80.7 467,-80.7"/>
<polygon fill="none" stroke="#000000" points="467,-80.7 467,-99.7 496,-99.7 496,-80.7 467,-80.7"/>
<text text-anchor="start" x="486.8862" y="-86.8" font-family="Helvetica,sans-Serif" font-size="11.00" fill="#000000"> &#160;</text>
<polygon fill="#ffffff" stroke="transparent" points="496,-80.7 496,-99.7 526,-99.7 526,-80.7 496,-80.7"/>
<polygon fill="none" stroke="#000000" points="496,-80.7 496,-99.7 526,-99.7 526,-80.7 496,-80.7"/>
<text text-anchor="start" x="516.8862" y="-86.8" font-family="Helvetica,sans-Serif" font-size="11.00" fill="#000000"> &#160;</text>
</a>
</g>
</g>
<!-- treatments&#45;&gt;departments -->
<g id="edge3" class="edge">
<title>treatments:w&#45;&gt;departments:e</title>
<path fill="none" stroke="#000000" d="M397.4909,-108.7C386.1774,-108.7 378.9931,-108.7 363,-108.7"/>
<polygon fill="#000000" stroke="#000000" points="404,-108.7001 412,-112.3 408,-108.7 412,-108.7 412,-108.7 412,-108.7 408,-108.7 412,-105.1 404,-108.7001 404,-108.7001"/>
<ellipse fill="none" stroke="#000000" cx="400.8" cy="-108.7001" rx="3.2" ry="3.2"/>
</g>
</g>
</svg>
