<?xml version="1.0" encoding="UTF-8" standalone="no"?>
<!DOCTYPE svg PUBLIC "-//W3C//DTD SVG 1.1//EN"
 "http://www.w3.org/Graphics/SVG/1.1/DTD/svg11.dtd">
<!-- Generated by graphviz version 2.40.1 (20161225.0304)
 -->
<!-- Title: oneDegreeRelationshipsDiagram Pages: 1 -->
<svg width="379pt" height="281pt"
 viewBox="0.00 0.00 379.00 281.20" xmlns="http://www.w3.org/2000/svg" xmlns:xlink="http://www.w3.org/1999/xlink">
<g id="graph0" class="graph" transform="scale(1 1) rotate(0) translate(4 277.2)">
<title>oneDegreeRelationshipsDiagram</title>
<polygon fill="#ffffff" stroke="transparent" points="-4,4 -4,-277.2 375,-277.2 375,4 -4,4"/>
<text text-anchor="middle" x="72.4936" y="-7.3" font-family="Helvetica,sans-Serif" font-size="11.00" fill="#000000">Generated by SchemaSpy</text>
<!-- departments -->
<g id="node1" class="node">
<title>departments</title>
<g id="a_node1"><a xlink:href="../../tables/departments.html" xlink:title="departments" target="_top">
<polygon fill="#ffffff" stroke="transparent" points="237,-164.2 237,-269.2 363,-269.2 363,-164.2 237,-164.2"/>
<polygon fill="#f5f5f5" stroke="transparent" points="237,-245.7 237,-268.7 363,-268.7 363,-245.7 237,-245.7"/>
<polygon fill="none" stroke="#000000" points="237,-245.7 237,-268.7 363,-268.7 363,-245.7 237,-245.7"/>
<text text-anchor="start" x="242" y="-254.3" font-family="Helvetica,sans-Serif" font-weight="bold" font-size="11.00" fill="#000000">departments</text>
<text text-anchor="start" x="328.5219" y="-253.8" font-family="Helvetica,sans-Serif" font-size="11.00" fill="#000000">[table]</text>
<polygon fill="none" stroke="#000000" points="237,-223.7 237,-245.7 363,-245.7 363,-223.7 237,-223.7"/>
<image xlink:href="../../images/primaryKeys.png" width="11px" height="12px" preserveAspectRatio="xMinYMin meet" x="242" y="-240.7"/>
<text text-anchor="start" x="266" y="-230.8" font-family="Helvetica,sans-Serif" font-size="11.00" fill="#000000">id</text>
<polygon fill="none" stroke="#000000" points="237,-201.7 237,-223.7 363,-223.7 363,-201.7 237,-201.7"/>
<image xlink:href="../../images/foreignKeys.png" width="11px" height="12px" preserveAspectRatio="xMinYMin meet" x="242" y="-218.7"/>
<text text-anchor="start" x="266" y="-208.8" font-family="Helvetica,sans-Serif" font-size="11.00" fill="#000000">clinic_id</text>
<polygon fill="none" stroke="#000000" points="237,-182.7 237,-201.7 363,-201.7 363,-182.7 237,-182.7"/>
<text text-anchor="start" x="240" y="-188.8" font-family="Helvetica,sans-Serif" font-size="11.00" fill="#000000">...</text>
<polygon fill="#ffffff" stroke="transparent" points="237,-163.7 237,-182.7 294,-182.7 294,-163.7 237,-163.7"/>
<polygon fill="none" stroke="#000000" points="237,-163.7 237,-182.7 294,-182.7 294,-163.7 237,-163.7"/>
<text text-anchor="start" x="240" y="-169.8" font-family="Helvetica,sans-Serif" font-size="11.00" fill="#000000">&lt; 1</text>
<polygon fill="#ffffff" stroke="transparent" points="294,-163.7 294,-182.7 324,-182.7 324,-163.7 294,-163.7"/>
<polygon fill="none" stroke="#000000" points="294,-163.7 294,-182.7 324,-182.7 324,-163.7 294,-163.7"/>
<text text-anchor="start" x="314.8862" y="-169.8" font-family="Helvetica,sans-Serif" font-size="11.00" fill="#000000"> &#160;</text>
<polygon fill="#ffffff" stroke="transparent" points="324,-163.7 324,-182.7 363,-182.7 363,-163.7 324,-163.7"/>
<polygon fill="none" stroke="#000000" points="324,-163.7 324,-182.7 363,-182.7 363,-163.7 324,-163.7"/>
<text text-anchor="start" x="344.4053" y="-169.8" font-family="Helvetica,sans-Serif" font-size="11.00" fill="#000000">1 &gt;</text>
</a>
</g>
</g>
<!-- clinics -->
<g id="node2" class="node">
<title>clinics</title>
<g id="a_node2"><a xlink:href="../../tables/clinics.html" xlink:title="clinics" target="_top">
<polygon fill="#ffffff" stroke="transparent" points="8,-73.7 8,-185.7 188,-185.7 188,-73.7 8,-73.7"/>
<polygon fill="#f5f5f5" stroke="transparent" points="10,-160.7 10,-183.7 186,-183.7 186,-160.7 10,-160.7"/>
<polygon fill="none" stroke="#000000" points="10,-160.7 10,-183.7 186,-183.7 186,-160.7 10,-160.7"/>
<text text-anchor="start" x="15" y="-169.3" font-family="Helvetica,sans-Serif" font-weight="bold" font-size="11.00" fill="#000000">clinics</text>
<text text-anchor="start" x="151.0437" y="-168.8" font-family="Helvetica,sans-Serif" font-size="11.00" fill="#000000">[table]</text>
<polygon fill="none" stroke="#000000" points="10,-138.7 10,-160.7 102,-160.7 102,-138.7 10,-138.7"/>
<image xlink:href="../../images/primaryKeys.png" width="11px" height="12px" preserveAspectRatio="xMinYMin meet" x="15" y="-155.7"/>
<text text-anchor="start" x="30" y="-145.8" font-family="Helvetica,sans-Serif" font-size="11.00" fill="#000000">id</text>
<polygon fill="none" stroke="#000000" points="102,-138.7 102,-160.7 186,-160.7 186,-138.7 102,-138.7"/>
<text text-anchor="start" x="105" y="-146.4" font-family="Helvetica,sans-Serif" font-size="11.00" fill="#000000">serial[10]</text>
<polygon fill="none" stroke="#000000" points="10,-116.7 10,-138.7 102,-138.7 102,-116.7 10,-116.7"/>
<text text-anchor="start" x="30" y="-123.8" font-family="Helvetica,sans-Serif" font-size="11.00" fill="#000000">name</text>
<polygon fill="none" stroke="#000000" points="102,-116.7 102,-138.7 186,-138.7 186,-116.7 102,-116.7"/>
<text text-anchor="start" x="105" y="-124.4" font-family="Helvetica,sans-Serif" font-size="11.00" fill="#000000">varchar[256]</text>
<polygon fill="none" stroke="#000000" points="10,-94.7 10,-116.7 102,-116.7 102,-94.7 10,-94.7"/>
<text text-anchor="start" x="30" y="-101.8" font-family="Helvetica,sans-Serif" font-size="11.00" fill="#000000">created_at</text>
<polygon fill="none" stroke="#000000" points="102,-94.7 102,-116.7 186,-116.7 186,-94.7 102,-94.7"/>
<text text-anchor="start" x="104.8807" y="-102.4" font-family="Helvetica,sans-Serif" font-size="11.00" fill="#000000">timestamp[29,6]</text>
<polygon fill="#ffffff" stroke="transparent" points="10,-75.7 10,-94.7 60,-94.7 60,-75.7 10,-75.7"/>
<polygon fill="none" stroke="#000000" points="10,-75.7 10,-94.7 60,-94.7 60,-75.7 10,-75.7"/>
<text text-anchor="start" x="13" y="-81.8" font-family="Helvetica,sans-Serif" font-size="11.00" fill="#000000">&lt; 0</text>
<polygon fill="#ffffff" stroke="transparent" points="60,-75.7 60,-94.7 102,-94.7 102,-75.7 60,-75.7"/>
<polygon fill="none" stroke="#000000" points="60,-75.7 60,-94.7 102,-94.7 102,-75.7 60,-75.7"/>
<text text-anchor="start" x="92.8862" y="-81.8" font-family="Helvetica,sans-Serif" font-size="11.00" fill="#000000"> &#160;</text>
<polygon fill="#ffffff" stroke="transparent" points="102,-75.7 102,-94.7 186,-94.7 186,-75.7 102,-75.7"/>
<polygon fill="none" stroke="#000000" points="102,-75.7 102,-94.7 186,-94.7 186,-75.7 102,-75.7"/>
<text text-anchor="start" x="167.4053" y="-81.8" font-family="Helvetica,sans-Serif" font-size="11.00" fill="#000000">2 &gt;</text>
<polygon fill="none" stroke="#000000" stroke-width="2" points="9,-74.7 9,-184.7 187,-184.7 187,-74.7 9,-74.7"/>
</a>
</g>
</g>
<!-- departments&#45;&gt;clinics -->
<g id="edge1" class="edge">
<title>departments:w&#45;&gt;clinics:e</title>
<path fill="none" stroke="#000000" d="M222.9033,-207.7565C206.525,-192.9048 215.8329,-149.7 186,-149.7"/>
<polygon fill="#000000" stroke="#000000" points="229.4507,-210.0526 235.8087,-216.0972 233.2254,-211.3763 237,-212.7 237,-212.7 237,-212.7 233.2254,-211.3763 238.1913,-209.3028 229.4507,-210.0526 229.4507,-210.0526"/>
<ellipse fill="none" stroke="#000000" cx="226.431" cy="-208.9936" rx="3.2" ry="3.2"/>
</g>
<!-- patients -->
<g id="node3" class="node">
<title>patients</title>
<g id="a_node3"><a xlink:href="../../tables/patients.html" xlink:title="patients" target="_top">
<polygon fill="#ffffff" stroke="transparent" points="252.5,-38.2 252.5,-143.2 347.5,-143.2 347.5,-38.2 252.5,-38.2"/>
<polygon fill="#f5f5f5" stroke="transparent" points="253,-119.7 253,-142.7 348,-142.7 348,-119.7 253,-119.7"/>
<polygon fill="none" stroke="#000000" points="253,-119.7 253,-142.7 348,-142.7 348,-119.7 253,-119.7"/>
<text text-anchor="start" x="258" y="-128.3" font-family="Helvetica,sans-Serif" font-weight="bold" font-size="11.00" fill="#000000">patients</text>
<text text-anchor="start" x="313.5219" y="-127.8" font-family="Helvetica,sans-Serif" font-size="11.00" fill="#000000">[table]</text>
<polygon fill="none" stroke="#000000" points="253,-97.7 253,-119.7 348,-119.7 348,-97.7 253,-97.7"/>
<image xlink:href="../../images/primaryKeys.png" width="11px" height="12px" preserveAspectRatio="xMinYMin meet" x="258" y="-114.7"/>
<text text-anchor="start" x="275" y="-104.8" font-family="Helvetica,sans-Serif" font-size="11.00" fill="#000000">id</text>
<polygon fill="none" stroke="#000000" points="253,-75.7 253,-97.7 348,-97.7 348,-75.7 253,-75.7"/>
<image xlink:href="../../images/foreignKeys.png" width="11px" height="12px" preserveAspectRatio="xMinYMin meet" x="258" y="-92.7"/>
<text text-anchor="start" x="275" y="-82.8" font-family="Helvetica,sans-Serif" font-size="11.00" fill="#000000">clinic_id</text>
<polygon fill="none" stroke="#000000" points="253,-56.7 253,-75.7 348,-75.7 348,-56.7 253,-56.7"/>
<text text-anchor="start" x="256" y="-62.8" font-family="Helvetica,sans-Serif" font-size="11.00" fill="#000000">...</text>
<polygon fill="#ffffff" stroke="transparent" points="253,-37.7 253,-56.7 299,-56.7 299,-37.7 253,-37.7"/>
<polygon fill="none" stroke="#000000" points="253,-37.7 253,-56.7 299,-56.7 299,-37.7 253,-37.7"/>
<text text-anchor="start" x="256" y="-43.8" font-family="Helvetica,sans-Serif" font-size="11.00" fill="#000000">&lt; 1</text>
<polygon fill="#ffffff" stroke="transparent" points="299,-37.7 299,-56.7 323,-56.7 323,-37.7 299,-37.7"/>
<polygon fill="none" stroke="#000000" points="299,-37.7 299,-56.7 323,-56.7 323,-37.7 299,-37.7"/>
<text text-anchor="start" x="313.8862" y="-43.8" font-family="Helvetica,sans-Serif" font-size="11.00" fill="#000000"> &#160;</text>
<polygon fill="#ffffff" stroke="transparent" points="323,-37.7 323,-56.7 348,-56.7 348,-37.7 323,-37.7"/>
<polygon fill="none" stroke="#000000" points="323,-37.7 323,-56.7 348,-56.7 348,-37.7 323,-37.7"/>
<text text-anchor="start" x="338.8862" y="-43.8" font-family="Helvetica,sans-Serif" font-size="11.00" fill="#000000"> &#160;</text>
</a>
</g>
</g>
<!-- patients&#45;&gt;clinics -->
<g id="edge2" class="edge">
<title>patients:w&#45;&gt;clinics:e</title>
<path fill="none" stroke="#000000" d="M238.7467,-90.0872C215.1737,-103.1729 221.1264,-149.7 186,-149.7"/>
<polygon fill="#000000" stroke="#000000" points="245.2167,-88.5496 253.8323,-90.2025 249.1084,-87.6248 253,-86.7 253,-86.7 253,-86.7 249.1084,-87.6248 252.1677,-83.1975 245.2167,-88.5496 245.2167,-88.5496"/>
<ellipse fill="none" stroke="#000000" cx="242.1034" cy="-89.2895" rx="3.2" ry="3.2"/>
</g>
</g>
</svg>
