<?xml version="1.0" encoding="UTF-8" standalone="no"?>
<!DOCTYPE svg PUBLIC "-//W3C//DTD SVG 1.1//EN"
 "http://www.w3.org/Graphics/SVG/1.1/DTD/svg11.dtd">
<!-- Generated by graphviz version 2.40.1 (20161225.0304)
 -->
<!-- Title: twoDegreesRelationshipsDiagram Pages: 1 -->
<svg width="529pt" height="267pt"
 viewBox="0.00 0.00 529.00 266.70" xmlns="http://www.w3.org/2000/svg" xmlns:xlink="http://www.w3.org/1999/xlink">
<g id="graph0" class="graph" transform="scale(1 1) rotate(0) translate(4 262.7)">
<title>twoDegreesRelationshipsDiagram</title>
<polygon fill="#ffffff" stroke="transparent" points="-4,4 -4,-262.7 525,-262.7 525,4 -4,4"/>
<text text-anchor="middle" x="72.4936" y="-7.3" font-family="Helvetica,sans-Serif" font-size="11.00" fill="#000000">Generated by SchemaSpy</text>
<!-- departments -->
<g id="node1" class="node">
<title>departments</title>
<g id="a_node1"><a xlink:href="../../tables/departments.html" xlink:title="departments" target="_top">
<polygon fill="#ffffff" stroke="transparent" points="149,-38.2 149,-172.2 345,-172.2 345,-38.2 149,-38.2"/>
<polygon fill="#f5f5f5" stroke="transparent" points="151,-147.2 151,-170.2 343,-170.2 343,-147.2 151,-147.2"/>
<polygon fill="none" stroke="#000000" points="151,-147.2 151,-170.2 343,-170.2 343,-147.2 151,-147.2"/>
<text text-anchor="start" x="156" y="-155.8" font-family="Helvetica,sans-Serif" font-weight="bold" font-size="11.00" fill="#000000">departments</text>
<text text-anchor="start" x="308.0437" y="-155.3" font-family="Helvetica,sans-Serif" font-size="11.00" fill="#000000">[table]</text>
<polygon fill="none" stroke="#000000" points="151,-125.2 151,-147.2 259,-147.2 259,-125.2 151,-125.2"/>
<image xlink:href="../../images/primaryKeys.png" width="11px" height="12px" preserveAspectRatio="xMinYMin meet" x="156" y="-142.2"/>
<text text-anchor="start" x="171" y="-132.3" font-family="Helvetica,sans-Serif" font-size="11.00" fill="#000000">id</text>
<polygon fill="none" stroke="#000000" points="259,-125.2 259,-147.2 343,-147.2 343,-125.2 259,-125.2"/>
<text text-anchor="start" x="262" y="-132.9" font-family="Helvetica,sans-Serif" font-size="11.00" fill="#000000">serial[10]</text>
<polygon fill="none" stroke="#000000" points="151,-103.2 151,-125.2 259,-125.2 259,-103.2 151,-103.2"/>
<text text-anchor="start" x="171" y="-110.3" font-family="Helvetica,sans-Serif" font-size="11.00" fill="#000000">name</text>
<polygon fill="none" stroke="#000000" points="259,-103.2 259,-125.2 343,-125.2 343,-103.2 259,-103.2"/>
<text text-anchor="start" x="262" y="-110.9" font-family="Helvetica,sans-Serif" font-size="11.00" fill="#000000">varchar[256]</text>
<polygon fill="none" stroke="#000000" points="151,-81.2 151,-103.2 259,-103.2 259,-81.2 151,-81.2"/>
<image xlink:href="../../images/foreignKeys.png" width="11px" height="12px" preserveAspectRatio="xMinYMin meet" x="156" y="-98.2"/>
<text text-anchor="start" x="171" y="-88.3" font-family="Helvetica,sans-Serif" font-size="11.00" fill="#000000">clinic_id</text>
<polygon fill="none" stroke="#000000" points="259,-81.2 259,-103.2 343,-103.2 343,-81.2 259,-81.2"/>
<text text-anchor="start" x="262" y="-88.9" font-family="Helvetica,sans-Serif" font-size="11.00" fill="#000000">int4[10]</text>
<polygon fill="none" stroke="#000000" points="151,-59.2 151,-81.2 259,-81.2 259,-59.2 151,-59.2"/>
<text text-anchor="start" x="171" y="-66.3" font-family="Helvetica,sans-Serif" font-size="11.00" fill="#000000">created_at</text>
<polygon fill="none" stroke="#000000" points="259,-59.2 259,-81.2 343,-81.2 343,-59.2 259,-59.2"/>
<text text-anchor="start" x="261.8807" y="-66.9" font-family="Helvetica,sans-Serif" font-size="11.00" fill="#000000">timestamp[29,6]</text>
<polygon fill="#ffffff" stroke="transparent" points="151,-40.2 151,-59.2 209,-59.2 209,-40.2 151,-40.2"/>
<polygon fill="none" stroke="#000000" points="151,-40.2 151,-59.2 209,-59.2 209,-40.2 151,-40.2"/>
<text text-anchor="start" x="154" y="-46.3" font-family="Helvetica,sans-Serif" font-size="11.00" fill="#000000">&lt; 1</text>
<polygon fill="#ffffff" stroke="transparent" points="209,-40.2 209,-59.2 259,-59.2 259,-40.2 209,-40.2"/>
<polygon fill="none" stroke="#000000" points="209,-40.2 209,-59.2 259,-59.2 259,-40.2 209,-40.2"/>
<text text-anchor="start" x="249.8862" y="-46.3" font-family="Helvetica,sans-Serif" font-size="11.00" fill="#000000"> &#160;</text>
<polygon fill="#ffffff" stroke="transparent" points="259,-40.2 259,-59.2 343,-59.2 343,-40.2 259,-40.2"/>
<polygon fill="none" stroke="#000000" points="259,-40.2 259,-59.2 343,-59.2 343,-40.2 259,-40.2"/>
<text text-anchor="start" x="324.4053" y="-46.3" font-family="Helvetica,sans-Serif" font-size="11.00" fill="#000000">1 &gt;</text>
<polygon fill="none" stroke="#000000" stroke-width="2" points="150,-39.2 150,-171.2 344,-171.2 344,-39.2 150,-39.2"/>
</a>
</g>
</g>
<!-- clinics -->
<g id="node2" class="node">
<title>clinics</title>
<g id="a_node2"><a xlink:href="../../tables/clinics.html" xlink:title="clinics" target="_top">
<polygon fill="#ffffff" stroke="transparent" points="8,-107.7 8,-190.7 100,-190.7 100,-107.7 8,-107.7"/>
<polygon fill="#f5f5f5" stroke="transparent" points="8,-167.2 8,-190.2 100,-190.2 100,-167.2 8,-167.2"/>
<polygon fill="none" stroke="#000000" points="8,-167.2 8,-190.2 100,-190.2 100,-167.2 8,-167.2"/>
<text text-anchor="start" x="13" y="-175.8" font-family="Helvetica,sans-Serif" font-weight="bold" font-size="11.00" fill="#000000">clinics</text>
<text text-anchor="start" x="65.0437" y="-175.3" font-family="Helvetica,sans-Serif" font-size="11.00" fill="#000000">[table]</text>
<polygon fill="none" stroke="#000000" points="8,-145.2 8,-167.2 100,-167.2 100,-145.2 8,-145.2"/>
<image xlink:href="../../images/primaryKeys.png" width="11px" height="12px" preserveAspectRatio="xMinYMin meet" x="13" y="-162.2"/>
<text text-anchor="start" x="28" y="-152.3" font-family="Helvetica,sans-Serif" font-size="11.00" fill="#000000">id</text>
<polygon fill="none" stroke="#000000" points="8,-126.2 8,-145.2 100,-145.2 100,-126.2 8,-126.2"/>
<text text-anchor="start" x="11" y="-132.3" font-family="Helvetica,sans-Serif" font-size="11.00" fill="#000000">...</text>
<polygon fill="#ffffff" stroke="transparent" points="8,-107.2 8,-126.2 43,-126.2 43,-107.2 8,-107.2"/>
<polygon fill="none" stroke="#000000" points="8,-107.2 8,-126.2 43,-126.2 43,-107.2 8,-107.2"/>
<text text-anchor="start" x="11" y="-113.3" font-family="Helvetica,sans-Serif" font-size="11.00" fill="#000000"> &#160;</text>
<polygon fill="#ffffff" stroke="transparent" points="43,-107.2 43,-126.2 67,-126.2 67,-107.2 43,-107.2"/>
<polygon fill="none" stroke="#000000" points="43,-107.2 43,-126.2 67,-126.2 67,-107.2 43,-107.2"/>
<text text-anchor="start" x="57.8862" y="-113.3" font-family="Helvetica,sans-Serif" font-size="11.00" fill="#000000"> &#160;</text>
<polygon fill="#ffffff" stroke="transparent" points="67,-107.2 67,-126.2 100,-126.2 100,-107.2 67,-107.2"/>
<polygon fill="none" stroke="#000000" points="67,-107.2 67,-126.2 100,-126.2 100,-107.2 67,-107.2"/>
<text text-anchor="start" x="81.4053" y="-113.3" font-family="Helvetica,sans-Serif" font-size="11.00" fill="#000000">2 &gt;</text>
</a>
</g>
</g>
<!-- departments&#45;&gt;clinics -->
<g id="edge1" class="edge">
<title>departments:w&#45;&gt;clinics:e</title>
<path fill="none" stroke="#000000" d="M137.2779,-96.8027C120.1988,-111.4773 130.4041,-156.2 100,-156.2"/>
<polygon fill="#000000" stroke="#000000" points="143.4153,-94.7441 152.1449,-95.6131 147.2077,-93.4721 151,-92.2 151,-92.2 151,-92.2 147.2077,-93.4721 149.8551,-88.7869 143.4153,-94.7441 143.4153,-94.7441"/>
<ellipse fill="none" stroke="#000000" cx="140.3814" cy="-95.7618" rx="3.2" ry="3.2"/>
</g>
<!-- patients -->
<g id="node3" class="node">
<title>patients</title>
<g id="a_node3"><a xlink:href="../../tables/patients.html" xlink:title="patients" target="_top">
<polygon fill="#ffffff" stroke="transparent" points="199.5,-193.7 199.5,-254.7 294.5,-254.7 294.5,-193.7 199.5,-193.7"/>
<polygon fill="#f5f5f5" stroke="transparent" points="200,-231.2 200,-254.2 295,-254.2 295,-231.2 200,-231.2"/>
<polygon fill="none" stroke="#000000" points="200,-231.2 200,-254.2 295,-254.2 295,-231.2 200,-231.2"/>
<text text-anchor="start" x="205" y="-239.8" font-family="Helvetica,sans-Serif" font-weight="bold" font-size="11.00" fill="#000000">patients</text>
<text text-anchor="start" x="260.5219" y="-239.3" font-family="Helvetica,sans-Serif" font-size="11.00" fill="#000000">[table]</text>
<polygon fill="none" stroke="#000000" points="200,-212.2 200,-231.2 295,-231.2 295,-212.2 200,-212.2"/>
<text text-anchor="start" x="203" y="-218.3" font-family="Helvetica,sans-Serif" font-size="11.00" fill="#000000">...</text>
<polygon fill="#ffffff" stroke="transparent" points="200,-193.2 200,-212.2 246,-212.2 246,-193.2 200,-193.2"/>
<polygon fill="none" stroke="#000000" points="200,-193.2 200,-212.2 246,-212.2 246,-193.2 200,-193.2"/>
<text text-anchor="start" x="203" y="-199.3" font-family="Helvetica,sans-Serif" font-size="11.00" fill="#000000">&lt; 1</text>
<polygon fill="#ffffff" stroke="transparent" points="246,-193.2 246,-212.2 270,-212.2 270,-193.2 246,-193.2"/>
<polygon fill="none" stroke="#000000" points="246,-193.2 246,-212.2 270,-212.2 270,-193.2 246,-193.2"/>
<text text-anchor="start" x="260.8862" y="-199.3" font-family="Helvetica,sans-Serif" font-size="11.00" fill="#000000"> &#160;</text>
<polygon fill="#ffffff" stroke="transparent" points="270,-193.2 270,-212.2 295,-212.2 295,-193.2 270,-193.2"/>
<polygon fill="none" stroke="#000000" points="270,-193.2 270,-212.2 295,-212.2 295,-193.2 270,-193.2"/>
<text text-anchor="start" x="285.8862" y="-199.3" font-family="Helvetica,sans-Serif" font-size="11.00" fill="#000000"> &#160;</text>
</a>
</g>
</g>
<!-- patients&#45;&gt;clinics -->
<g id="edge2" class="edge">
<title>patients:w&#45;&gt;clinics:e</title>
<path fill="none" stroke="#000000" d="M185.4716,-219.233C167.3706,-213.6304 162.3377,-197.0968 141,-183.2 122.7171,-171.2927 121.8186,-156.2 100,-156.2"/>
<polygon fill="#000000" stroke="#000000" points="192.0723,-220.1266 199.517,-224.7675 196.0362,-220.6633 200,-221.2 200,-221.2 200,-221.2 196.0362,-220.6633 200.483,-217.6325 192.0723,-220.1266 192.0723,-220.1266"/>
<ellipse fill="none" stroke="#000000" cx="188.9013" cy="-219.6973" rx="3.2" ry="3.2"/>
</g>
<!-- treatments -->
<g id="node4" class="node">
<title>treatments</title>
<g id="a_node4"><a xlink:href="../../tables/treatments.html" xlink:title="treatments" target="_top">
<polygon fill="#ffffff" stroke="transparent" points="394,-87.7 394,-192.7 513,-192.7 513,-87.7 394,-87.7"/>
<polygon fill="#f5f5f5" stroke="transparent" points="394.5,-169.2 394.5,-192.2 513.5,-192.2 513.5,-169.2 394.5,-169.2"/>
<polygon fill="none" stroke="#000000" points="394.5,-169.2 394.5,-192.2 513.5,-192.2 513.5,-169.2 394.5,-169.2"/>
<text text-anchor="start" x="399.5" y="-177.8" font-family="Helvetica,sans-Serif" font-weight="bold" font-size="11.00" fill="#000000">treatments</text>
<text text-anchor="start" x="478.5437" y="-177.3" font-family="Helvetica,sans-Serif" font-size="11.00" fill="#000000">[table]</text>
<polygon fill="none" stroke="#000000" points="394.5,-147.2 394.5,-169.2 513.5,-169.2 513.5,-147.2 394.5,-147.2"/>
<image xlink:href="../../images/primaryKeys.png" width="11px" height="12px" preserveAspectRatio="xMinYMin meet" x="399.5" y="-164.2"/>
<text text-anchor="start" x="414.5" y="-154.3" font-family="Helvetica,sans-Serif" font-size="11.00" fill="#000000">id</text>
<polygon fill="none" stroke="#000000" points="394.5,-125.2 394.5,-147.2 513.5,-147.2 513.5,-125.2 394.5,-125.2"/>
<image xlink:href="../../images/foreignKeys.png" width="11px" height="12px" preserveAspectRatio="xMinYMin meet" x="399.5" y="-142.2"/>
<text text-anchor="start" x="414.5" y="-132.3" font-family="Helvetica,sans-Serif" font-size="11.00" fill="#000000">department_id</text>
<polygon fill="none" stroke="#000000" points="394.5,-106.2 394.5,-125.2 513.5,-125.2 513.5,-106.2 394.5,-106.2"/>
<text text-anchor="start" x="397.5" y="-112.3" font-family="Helvetica,sans-Serif" font-size="11.00" fill="#000000">...</text>
<polygon fill="#ffffff" stroke="transparent" points="394.5,-87.2 394.5,-106.2 452.5,-106.2 452.5,-87.2 394.5,-87.2"/>
<polygon fill="none" stroke="#000000" points="394.5,-87.2 394.5,-106.2 452.5,-106.2 452.5,-87.2 394.5,-87.2"/>
<text text-anchor="start" x="397.5" y="-93.3" font-family="Helvetica,sans-Serif" font-size="11.00" fill="#000000">&lt; 1</text>
<polygon fill="#ffffff" stroke="transparent" points="452.5,-87.2 452.5,-106.2 482.5,-106.2 482.5,-87.2 452.5,-87.2"/>
<polygon fill="none" stroke="#000000" points="452.5,-87.2 452.5,-106.2 482.5,-106.2 482.5,-87.2 452.5,-87.2"/>
<text text-anchor="start" x="473.3862" y="-93.3" font-family="Helvetica,sans-Serif" font-size="11.00" fill="#000000"> &#160;</text>
<polygon fill="#ffffff" stroke="transparent" points="482.5,-87.2 482.5,-106.2 513.5,-106.2 513.5,-87.2 482.5,-87.2"/>
<polygon fill="none" stroke="#000000" points="482.5,-87.2 482.5,-106.2 513.5,-106.2 513.5,-87.2 482.5,-87.2"/>
<text text-anchor="start" x="504.3862" y="-93.3" font-family="Helvetica,sans-Serif" font-size="11.00" fill="#000000"> &#160;</text>
</a>
</g>
</g>
<!-- treatments&#45;&gt;departments -->
<g id="edge3" class="edge">
<title>treatments:w&#45;&gt;departments:e</title>
<path fill="none" stroke="#000000" d="M380.0156,-136.2C367.6771,-136.2 360.1667,-136.2 343,-136.2"/>
<polygon fill="#000000" stroke="#000000" points="386.5,-136.2001 394.5,-139.8 390.5,-136.2 394.5,-136.2 394.5,-136.2 394.5,-136.2 390.5,-136.2 394.5,-132.6 386.5,-136.2001 386.5,-136.2001"/>
<ellipse fill="none" stroke="#000000" cx="383.3" cy="-136.2001" rx="3.2" ry="3.2"/>
</g>
</g>
</svg>
