<?xml version="1.0" encoding="UTF-8" standalone="no"?>
<!DOCTYPE svg PUBLIC "-//W3C//DTD SVG 1.1//EN"
 "http://www.w3.org/Graphics/SVG/1.1/DTD/svg11.dtd">
<!-- Generated by graphviz version 2.40.1 (20161225.0304)
 -->
<!-- Title: oneDegreeRelationshipsDiagram Pages: 1 -->
<svg width="345pt" height="206pt"
 viewBox="0.00 0.00 345.00 206.20" xmlns="http://www.w3.org/2000/svg" xmlns:xlink="http://www.w3.org/1999/xlink">
<g id="graph0" class="graph" transform="scale(1 1) rotate(0) translate(4 202.2)">
<title>oneDegreeRelationshipsDiagram</title>
<polygon fill="#ffffff" stroke="transparent" points="-4,4 -4,-202.2 341,-202.2 341,4 -4,4"/>
<text text-anchor="middle" x="72.4936" y="-7.3" font-family="Helvetica,sans-Serif" font-size="11.00" fill="#000000">Generated by SchemaSpy</text>
<!-- patients -->
<g id="node1" class="node">
<title>patients</title>
<g id="a_node1"><a xlink:href="../../tables/patients.html" xlink:title="patients" target="_top">
<polygon fill="#ffffff" stroke="transparent" points="149,-38.2 149,-194.2 329,-194.2 329,-38.2 149,-38.2"/>
<polygon fill="#f5f5f5" stroke="transparent" points="151,-169.2 151,-192.2 327,-192.2 327,-169.2 151,-169.2"/>
<polygon fill="none" stroke="#000000" points="151,-169.2 151,-192.2 327,-192.2 327,-169.2 151,-169.2"/>
<text text-anchor="start" x="156" y="-177.8" font-family="Helvetica,sans-Serif" font-weight="bold" font-size="11.00" fill="#000000">patients</text>
<text text-anchor="start" x="292.0437" y="-177.3" font-family="Helvetica,sans-Serif" font-size="11.00" fill="#000000">[table]</text>
<polygon fill="none" stroke="#000000" points="151,-147.2 151,-169.2 243,-169.2 243,-147.2 151,-147.2"/>
<image xlink:href="../../images/primaryKeys.png" width="11px" height="12px" preserveAspectRatio="xMinYMin meet" x="156" y="-164.2"/>
<text text-anchor="start" x="171" y="-154.3" font-family="Helvetica,sans-Serif" font-size="11.00" fill="#000000">id</text>
<polygon fill="none" stroke="#000000" points="243,-147.2 243,-169.2 327,-169.2 327,-147.2 243,-147.2"/>
<text text-anchor="start" x="246" y="-154.9" font-family="Helvetica,sans-Serif" font-size="11.00" fill="#000000">serial[10]</text>
<polygon fill="none" stroke="#000000" points="151,-125.2 151,-147.2 243,-147.2 243,-125.2 151,-125.2"/>
<text text-anchor="start" x="171" y="-132.3" font-family="Helvetica,sans-Serif" font-size="11.00" fill="#000000">name</text>
<polygon fill="none" stroke="#000000" points="243,-125.2 243,-147.2 327,-147.2 327,-125.2 243,-125.2"/>
<text text-anchor="start" x="246" y="-132.9" font-family="Helvetica,sans-Serif" font-size="11.00" fill="#000000">varchar[256]</text>
<polygon fill="none" stroke="#000000" points="151,-103.2 151,-125.2 243,-125.2 243,-103.2 151,-103.2"/>
<text text-anchor="start" x="171" y="-110.3" font-family="Helvetica,sans-Serif" font-size="11.00" fill="#000000">sex</text>
<polygon fill="none" stroke="#000000" points="243,-103.2 243,-125.2 327,-125.2 327,-103.2 243,-103.2"/>
<text text-anchor="start" x="246" y="-110.9" font-family="Helvetica,sans-Serif" font-size="11.00" fill="#000000">varchar[256]</text>
<polygon fill="none" stroke="#000000" points="151,-81.2 151,-103.2 243,-103.2 243,-81.2 151,-81.2"/>
<image xlink:href="../../images/foreignKeys.png" width="11px" height="12px" preserveAspectRatio="xMinYMin meet" x="156" y="-98.2"/>
<text text-anchor="start" x="171" y="-88.3" font-family="Helvetica,sans-Serif" font-size="11.00" fill="#000000">clinic_id</text>
<polygon fill="none" stroke="#000000" points="243,-81.2 243,-103.2 327,-103.2 327,-81.2 243,-81.2"/>
<text text-anchor="start" x="246" y="-88.9" font-family="Helvetica,sans-Serif" font-size="11.00" fill="#000000">int4[10]</text>
<polygon fill="none" stroke="#000000" points="151,-59.2 151,-81.2 243,-81.2 243,-59.2 151,-59.2"/>
<text text-anchor="start" x="171" y="-66.3" font-family="Helvetica,sans-Serif" font-size="11.00" fill="#000000">created_at</text>
<polygon fill="none" stroke="#000000" points="243,-59.2 243,-81.2 327,-81.2 327,-59.2 243,-59.2"/>
<text text-anchor="start" x="245.8807" y="-66.9" font-family="Helvetica,sans-Serif" font-size="11.00" fill="#000000">timestamp[29,6]</text>
<polygon fill="#ffffff" stroke="transparent" points="151,-40.2 151,-59.2 201,-59.2 201,-40.2 151,-40.2"/>
<polygon fill="none" stroke="#000000" points="151,-40.2 151,-59.2 201,-59.2 201,-40.2 151,-40.2"/>
<text text-anchor="start" x="154" y="-46.3" font-family="Helvetica,sans-Serif" font-size="11.00" fill="#000000">&lt; 1</text>
<polygon fill="#ffffff" stroke="transparent" points="201,-40.2 201,-59.2 243,-59.2 243,-40.2 201,-40.2"/>
<polygon fill="none" stroke="#000000" points="201,-40.2 201,-59.2 243,-59.2 243,-40.2 201,-40.2"/>
<text text-anchor="start" x="233.8862" y="-46.3" font-family="Helvetica,sans-Serif" font-size="11.00" fill="#000000"> &#160;</text>
<polygon fill="#ffffff" stroke="transparent" points="243,-40.2 243,-59.2 327,-59.2 327,-40.2 243,-40.2"/>
<polygon fill="none" stroke="#000000" points="243,-40.2 243,-59.2 327,-59.2 327,-40.2 243,-40.2"/>
<text text-anchor="start" x="308.4053" y="-46.3" font-family="Helvetica,sans-Serif" font-size="11.00" fill="#000000">0 &gt;</text>
<polygon fill="none" stroke="#000000" stroke-width="2" points="150,-39.2 150,-193.2 328,-193.2 328,-39.2 150,-39.2"/>
</a>
</g>
</g>
<!-- clinics -->
<g id="node2" class="node">
<title>clinics</title>
<g id="a_node2"><a xlink:href="../../tables/clinics.html" xlink:title="clinics" target="_top">
<polygon fill="#ffffff" stroke="transparent" points="8,-43.7 8,-126.7 100,-126.7 100,-43.7 8,-43.7"/>
<polygon fill="#f5f5f5" stroke="transparent" points="8,-103.2 8,-126.2 100,-126.2 100,-103.2 8,-103.2"/>
<polygon fill="none" stroke="#000000" points="8,-103.2 8,-126.2 100,-126.2 100,-103.2 8,-103.2"/>
<text text-anchor="start" x="13" y="-111.8" font-family="Helvetica,sans-Serif" font-weight="bold" font-size="11.00" fill="#000000">clinics</text>
<text text-anchor="start" x="65.0437" y="-111.3" font-family="Helvetica,sans-Serif" font-size="11.00" fill="#000000">[table]</text>
<polygon fill="none" stroke="#000000" points="8,-81.2 8,-103.2 100,-103.2 100,-81.2 8,-81.2"/>
<image xlink:href="../../images/primaryKeys.png" width="11px" height="12px" preserveAspectRatio="xMinYMin meet" x="13" y="-98.2"/>
<text text-anchor="start" x="28" y="-88.3" font-family="Helvetica,sans-Serif" font-size="11.00" fill="#000000">id</text>
<polygon fill="none" stroke="#000000" points="8,-62.2 8,-81.2 100,-81.2 100,-62.2 8,-62.2"/>
<text text-anchor="start" x="11" y="-68.3" font-family="Helvetica,sans-Serif" font-size="11.00" fill="#000000">...</text>
<polygon fill="#ffffff" stroke="transparent" points="8,-43.2 8,-62.2 43,-62.2 43,-43.2 8,-43.2"/>
<polygon fill="none" stroke="#000000" points="8,-43.2 8,-62.2 43,-62.2 43,-43.2 8,-43.2"/>
<text text-anchor="start" x="11" y="-49.3" font-family="Helvetica,sans-Serif" font-size="11.00" fill="#000000"> &#160;</text>
<polygon fill="#ffffff" stroke="transparent" points="43,-43.2 43,-62.2 67,-62.2 67,-43.2 43,-43.2"/>
<polygon fill="none" stroke="#000000" points="43,-43.2 43,-62.2 67,-62.2 67,-43.2 43,-43.2"/>
<text text-anchor="start" x="57.8862" y="-49.3" font-family="Helvetica,sans-Serif" font-size="11.00" fill="#000000"> &#160;</text>
<polygon fill="#ffffff" stroke="transparent" points="67,-43.2 67,-62.2 100,-62.2 100,-43.2 67,-43.2"/>
<polygon fill="none" stroke="#000000" points="67,-43.2 67,-62.2 100,-62.2 100,-43.2 67,-43.2"/>
<text text-anchor="start" x="81.4053" y="-49.3" font-family="Helvetica,sans-Serif" font-size="11.00" fill="#000000">2 &gt;</text>
</a>
</g>
</g>
<!-- patients&#45;&gt;clinics -->
<g id="edge1" class="edge">
<title>patients:w&#45;&gt;clinics:e</title>
<path fill="none" stroke="#000000" d="M136.276,-92.2C124.2815,-92.2 116.8229,-92.2 100,-92.2"/>
<polygon fill="#000000" stroke="#000000" points="143,-92.2001 151,-95.8 147,-92.2 151,-92.2 151,-92.2 151,-92.2 147,-92.2 151,-88.6 143,-92.2001 143,-92.2001"/>
<ellipse fill="none" stroke="#000000" cx="139.8" cy="-92.2001" rx="3.2" ry="3.2"/>
</g>
</g>
</svg>
