<?xml version="1.0" encoding="UTF-8" standalone="no"?>
<!DOCTYPE svg PUBLIC "-//W3C//DTD SVG 1.1//EN"
 "http://www.w3.org/Graphics/SVG/1.1/DTD/svg11.dtd">
<!-- Generated by graphviz version 2.40.1 (20161225.0304)
 -->
<!-- Title: twoDegreesRelationshipsDiagram Pages: 1 -->
<svg width="345pt" height="289pt"
 viewBox="0.00 0.00 345.00 288.70" xmlns="http://www.w3.org/2000/svg" xmlns:xlink="http://www.w3.org/1999/xlink">
<g id="graph0" class="graph" transform="scale(1 1) rotate(0) translate(4 284.7)">
<title>twoDegreesRelationshipsDiagram</title>
<polygon fill="#ffffff" stroke="transparent" points="-4,4 -4,-284.7 341,-284.7 341,4 -4,4"/>
<text text-anchor="middle" x="72.4936" y="-7.3" font-family="Helvetica,sans-Serif" font-size="11.00" fill="#000000">Generated by SchemaSpy</text>
<!-- departments -->
<g id="node1" class="node">
<title>departments</title>
<g id="a_node1"><a xlink:href="../../tables/departments.html" xlink:title="departments" target="_top">
<polygon fill="#ffffff" stroke="transparent" points="176,-215.7 176,-276.7 302,-276.7 302,-215.7 176,-215.7"/>
<polygon fill="#f5f5f5" stroke="transparent" points="176,-253.2 176,-276.2 302,-276.2 302,-253.2 176,-253.2"/>
<polygon fill="none" stroke="#000000" points="176,-253.2 176,-276.2 302,-276.2 302,-253.2 176,-253.2"/>
<text text-anchor="start" x="181" y="-261.8" font-family="Helvetica,sans-Serif" font-weight="bold" font-size="11.00" fill="#000000">departments</text>
<text text-anchor="start" x="267.5219" y="-261.3" font-family="Helvetica,sans-Serif" font-size="11.00" fill="#000000">[table]</text>
<polygon fill="none" stroke="#000000" points="176,-234.2 176,-253.2 302,-253.2 302,-234.2 176,-234.2"/>
<text text-anchor="start" x="179" y="-240.3" font-family="Helvetica,sans-Serif" font-size="11.00" fill="#000000">...</text>
<polygon fill="#ffffff" stroke="transparent" points="176,-215.2 176,-234.2 233,-234.2 233,-215.2 176,-215.2"/>
<polygon fill="none" stroke="#000000" points="176,-215.2 176,-234.2 233,-234.2 233,-215.2 176,-215.2"/>
<text text-anchor="start" x="179" y="-221.3" font-family="Helvetica,sans-Serif" font-size="11.00" fill="#000000">&lt; 1</text>
<polygon fill="#ffffff" stroke="transparent" points="233,-215.2 233,-234.2 263,-234.2 263,-215.2 233,-215.2"/>
<polygon fill="none" stroke="#000000" points="233,-215.2 233,-234.2 263,-234.2 263,-215.2 233,-215.2"/>
<text text-anchor="start" x="253.8862" y="-221.3" font-family="Helvetica,sans-Serif" font-size="11.00" fill="#000000"> &#160;</text>
<polygon fill="#ffffff" stroke="transparent" points="263,-215.2 263,-234.2 302,-234.2 302,-215.2 263,-215.2"/>
<polygon fill="none" stroke="#000000" points="263,-215.2 263,-234.2 302,-234.2 302,-215.2 263,-215.2"/>
<text text-anchor="start" x="283.4053" y="-221.3" font-family="Helvetica,sans-Serif" font-size="11.00" fill="#000000">1 &gt;</text>
</a>
</g>
</g>
<!-- clinics -->
<g id="node2" class="node">
<title>clinics</title>
<g id="a_node2"><a xlink:href="../../tables/clinics.html" xlink:title="clinics" target="_top">
<polygon fill="#ffffff" stroke="transparent" points="8,-118.7 8,-201.7 100,-201.7 100,-118.7 8,-118.7"/>
<polygon fill="#f5f5f5" stroke="transparent" points="8,-178.2 8,-201.2 100,-201.2 100,-178.2 8,-178.2"/>
<polygon fill="none" stroke="#000000" points="8,-178.2 8,-201.2 100,-201.2 100,-178.2 8,-178.2"/>
<text text-anchor="start" x="13" y="-186.8" font-family="Helvetica,sans-Serif" font-weight="bold" font-size="11.00" fill="#000000">clinics</text>
<text text-anchor="start" x="65.0437" y="-186.3" font-family="Helvetica,sans-Serif" font-size="11.00" fill="#000000">[table]</text>
<polygon fill="none" stroke="#000000" points="8,-156.2 8,-178.2 100,-178.2 100,-156.2 8,-156.2"/>
<image xlink:href="../../images/primaryKeys.png" width="11px" height="12px" preserveAspectRatio="xMinYMin meet" x="13" y="-173.2"/>
<text text-anchor="start" x="28" y="-163.3" font-family="Helvetica,sans-Serif" font-size="11.00" fill="#000000">id</text>
<polygon fill="none" stroke="#000000" points="8,-137.2 8,-156.2 100,-156.2 100,-137.2 8,-137.2"/>
<text text-anchor="start" x="11" y="-143.3" font-family="Helvetica,sans-Serif" font-size="11.00" fill="#000000">...</text>
<polygon fill="#ffffff" stroke="transparent" points="8,-118.2 8,-137.2 43,-137.2 43,-118.2 8,-118.2"/>
<polygon fill="none" stroke="#000000" points="8,-118.2 8,-137.2 43,-137.2 43,-118.2 8,-118.2"/>
<text text-anchor="start" x="11" y="-124.3" font-family="Helvetica,sans-Serif" font-size="11.00" fill="#000000"> &#160;</text>
<polygon fill="#ffffff" stroke="transparent" points="43,-118.2 43,-137.2 67,-137.2 67,-118.2 43,-118.2"/>
<polygon fill="none" stroke="#000000" points="43,-118.2 43,-137.2 67,-137.2 67,-118.2 43,-118.2"/>
<text text-anchor="start" x="57.8862" y="-124.3" font-family="Helvetica,sans-Serif" font-size="11.00" fill="#000000"> &#160;</text>
<polygon fill="#ffffff" stroke="transparent" points="67,-118.2 67,-137.2 100,-137.2 100,-118.2 67,-118.2"/>
<polygon fill="none" stroke="#000000" points="67,-118.2 67,-137.2 100,-137.2 100,-118.2 67,-118.2"/>
<text text-anchor="start" x="81.4053" y="-124.3" font-family="Helvetica,sans-Serif" font-size="11.00" fill="#000000">2 &gt;</text>
</a>
</g>
</g>
<!-- departments&#45;&gt;clinics -->
<g id="edge1" class="edge">
<title>departments:w&#45;&gt;clinics:e</title>
<path fill="none" stroke="#000000" d="M161.7625,-240.3135C131.8859,-226.4312 142.1711,-167.2 100,-167.2"/>
<polygon fill="#000000" stroke="#000000" points="168.1595,-241.6104 175.2847,-246.7282 172.0798,-242.4052 176,-243.2 176,-243.2 176,-243.2 172.0798,-242.4052 176.7153,-239.6718 168.1595,-241.6104 168.1595,-241.6104"/>
<ellipse fill="none" stroke="#000000" cx="165.0233" cy="-240.9745" rx="3.2" ry="3.2"/>
</g>
<!-- patients -->
<g id="node3" class="node">
<title>patients</title>
<g id="a_node3"><a xlink:href="../../tables/patients.html" xlink:title="patients" target="_top">
<polygon fill="#ffffff" stroke="transparent" points="149,-38.2 149,-194.2 329,-194.2 329,-38.2 149,-38.2"/>
<polygon fill="#f5f5f5" stroke="transparent" points="151,-169.2 151,-192.2 327,-192.2 327,-169.2 151,-169.2"/>
<polygon fill="none" stroke="#000000" points="151,-169.2 151,-192.2 327,-192.2 327,-169.2 151,-169.2"/>
<text text-anchor="start" x="156" y="-177.8" font-family="Helvetica,sans-Serif" font-weight="bold" font-size="11.00" fill="#000000">patients</text>
<text text-anchor="start" x="292.0437" y="-177.3" font-family="Helvetica,sans-Serif" font-size="11.00" fill="#000000">[table]</text>
<polygon fill="none" stroke="#000000" points="151,-147.2 151,-169.2 243,-169.2 243,-147.2 151,-147.2"/>
<image xlink:href="../../images/primaryKeys.png" width="11px" height="12px" preserveAspectRatio="xMinYMin meet" x="156" y="-164.2"/>
<text text-anchor="start" x="171" y="-154.3" font-family="Helvetica,sans-Serif" font-size="11.00" fill="#000000">id</text>
<polygon fill="none" stroke="#000000" points="243,-147.2 243,-169.2 327,-169.2 327,-147.2 243,-147.2"/>
<text text-anchor="start" x="246" y="-154.9" font-family="Helvetica,sans-Serif" font-size="11.00" fill="#000000">serial[10]</text>
<polygon fill="none" stroke="#000000" points="151,-125.2 151,-147.2 243,-147.2 243,-125.2 151,-125.2"/>
<text text-anchor="start" x="171" y="-132.3" font-family="Helvetica,sans-Serif" font-size="11.00" fill="#000000">name</text>
<polygon fill="none" stroke="#000000" points="243,-125.2 243,-147.2 327,-147.2 327,-125.2 243,-125.2"/>
<text text-anchor="start" x="246" y="-132.9" font-family="Helvetica,sans-Serif" font-size="11.00" fill="#000000">varchar[256]</text>
<polygon fill="none" stroke="#000000" points="151,-103.2 151,-125.2 243,-125.2 243,-103.2 151,-103.2"/>
<text text-anchor="start" x="171" y="-110.3" font-family="Helvetica,sans-Serif" font-size="11.00" fill="#000000">sex</text>
<polygon fill="none" stroke="#000000" points="243,-103.2 243,-125.2 327,-125.2 327,-103.2 243,-103.2"/>
<text text-anchor="start" x="246" y="-110.9" font-family="Helvetica,sans-Serif" font-size="11.00" fill="#000000">varchar[256]</text>
<polygon fill="none" stroke="#000000" points="151,-81.2 151,-103.2 243,-103.2 243,-81.2 151,-81.2"/>
<image xlink:href="../../images/foreignKeys.png" width="11px" height="12px" preserveAspectRatio="xMinYMin meet" x="156" y="-98.2"/>
<text text-anchor="start" x="171" y="-88.3" font-family="Helvetica,sans-Serif" font-size="11.00" fill="#000000">clinic_id</text>
<polygon fill="none" stroke="#000000" points="243,-81.2 243,-103.2 327,-103.2 327,-81.2 243,-81.2"/>
<text text-anchor="start" x="246" y="-88.9" font-family="Helvetica,sans-Serif" font-size="11.00" fill="#000000">int4[10]</text>
<polygon fill="none" stroke="#000000" points="151,-59.2 151,-81.2 243,-81.2 243,-59.2 151,-59.2"/>
<text text-anchor="start" x="171" y="-66.3" font-family="Helvetica,sans-Serif" font-size="11.00" fill="#000000">created_at</text>
<polygon fill="none" stroke="#000000" points="243,-59.2 243,-81.2 327,-81.2 327,-59.2 243,-59.2"/>
<text text-anchor="start" x="245.8807" y="-66.9" font-family="Helvetica,sans-Serif" font-size="11.00" fill="#000000">timestamp[29,6]</text>
<polygon fill="#ffffff" stroke="transparent" points="151,-40.2 151,-59.2 201,-59.2 201,-40.2 151,-40.2"/>
<polygon fill="none" stroke="#000000" points="151,-40.2 151,-59.2 201,-59.2 201,-40.2 151,-40.2"/>
<text text-anchor="start" x="154" y="-46.3" font-family="Helvetica,sans-Serif" font-size="11.00" fill="#000000">&lt; 1</text>
<polygon fill="#ffffff" stroke="transparent" points="201,-40.2 201,-59.2 243,-59.2 243,-40.2 201,-40.2"/>
<polygon fill="none" stroke="#000000" points="201,-40.2 201,-59.2 243,-59.2 243,-40.2 201,-40.2"/>
<text text-anchor="start" x="233.8862" y="-46.3" font-family="Helvetica,sans-Serif" font-size="11.00" fill="#000000"> &#160;</text>
<polygon fill="#ffffff" stroke="transparent" points="243,-40.2 243,-59.2 327,-59.2 327,-40.2 243,-40.2"/>
<polygon fill="none" stroke="#000000" points="243,-40.2 243,-59.2 327,-59.2 327,-40.2 243,-40.2"/>
<text text-anchor="start" x="308.4053" y="-46.3" font-family="Helvetica,sans-Serif" font-size="11.00" fill="#000000">0 &gt;</text>
<polygon fill="none" stroke="#000000" stroke-width="2" points="150,-39.2 150,-193.2 328,-193.2 328,-39.2 150,-39.2"/>
</a>
</g>
</g>
<!-- patients&#45;&gt;clinics -->
<g id="edge2" class="edge">
<title>patients:w&#45;&gt;clinics:e</title>
<path fill="none" stroke="#000000" d="M137.2145,-96.667C117.9427,-112.8131 134.3264,-167.2 100,-167.2"/>
<polygon fill="#000000" stroke="#000000" points="143.3896,-94.6661 152.1097,-95.6247 147.1948,-93.433 151,-92.2 151,-92.2 151,-92.2 147.1948,-93.433 149.8903,-88.7753 143.3896,-94.6661 143.3896,-94.6661"/>
<ellipse fill="none" stroke="#000000" cx="140.3454" cy="-95.6525" rx="3.2" ry="3.2"/>
</g>
</g>
</svg>
