<?xml version="1.0" encoding="UTF-8" standalone="no"?>
<!DOCTYPE svg PUBLIC "-//W3C//DTD SVG 1.1//EN"
 "http://www.w3.org/Graphics/SVG/1.1/DTD/svg11.dtd">
<!-- Generated by graphviz version 2.40.1 (20161225.0304)
 -->
<!-- Title: twoDegreesRelationshipsDiagram Pages: 1 -->
<svg width="536pt" height="201pt"
 viewBox="0.00 0.00 536.00 200.70" xmlns="http://www.w3.org/2000/svg" xmlns:xlink="http://www.w3.org/1999/xlink">
<g id="graph0" class="graph" transform="scale(1 1) rotate(0) translate(4 196.7)">
<title>twoDegreesRelationshipsDiagram</title>
<polygon fill="#ffffff" stroke="transparent" points="-4,4 -4,-196.7 532,-196.7 532,4 -4,4"/>
<text text-anchor="middle" x="72.4936" y="-7.3" font-family="Helvetica,sans-Serif" font-size="11.00" fill="#000000">Generated by SchemaSpy</text>
<!-- departments -->
<g id="node1" class="node">
<title>departments</title>
<g id="a_node1"><a xlink:href="../../tables/departments.html" xlink:title="departments" target="_top">
<polygon fill="#ffffff" stroke="transparent" points="138,-38.2 138,-143.2 264,-143.2 264,-38.2 138,-38.2"/>
<polygon fill="#f5f5f5" stroke="transparent" points="138,-119.7 138,-142.7 264,-142.7 264,-119.7 138,-119.7"/>
<polygon fill="none" stroke="#000000" points="138,-119.7 138,-142.7 264,-142.7 264,-119.7 138,-119.7"/>
<text text-anchor="start" x="143" y="-128.3" font-family="Helvetica,sans-Serif" font-weight="bold" font-size="11.00" fill="#000000">departments</text>
<text text-anchor="start" x="229.5219" y="-127.8" font-family="Helvetica,sans-Serif" font-size="11.00" fill="#000000">[table]</text>
<polygon fill="none" stroke="#000000" points="138,-97.7 138,-119.7 264,-119.7 264,-97.7 138,-97.7"/>
<image xlink:href="../../images/primaryKeys.png" width="11px" height="12px" preserveAspectRatio="xMinYMin meet" x="143" y="-114.7"/>
<text text-anchor="start" x="167" y="-104.8" font-family="Helvetica,sans-Serif" font-size="11.00" fill="#000000">id</text>
<polygon fill="none" stroke="#000000" points="138,-75.7 138,-97.7 264,-97.7 264,-75.7 138,-75.7"/>
<image xlink:href="../../images/foreignKeys.png" width="11px" height="12px" preserveAspectRatio="xMinYMin meet" x="143" y="-92.7"/>
<text text-anchor="start" x="167" y="-82.8" font-family="Helvetica,sans-Serif" font-size="11.00" fill="#000000">clinic_id</text>
<polygon fill="none" stroke="#000000" points="138,-56.7 138,-75.7 264,-75.7 264,-56.7 138,-56.7"/>
<text text-anchor="start" x="141" y="-62.8" font-family="Helvetica,sans-Serif" font-size="11.00" fill="#000000">...</text>
<polygon fill="#ffffff" stroke="transparent" points="138,-37.7 138,-56.7 195,-56.7 195,-37.7 138,-37.7"/>
<polygon fill="none" stroke="#000000" points="138,-37.7 138,-56.7 195,-56.7 195,-37.7 138,-37.7"/>
<text text-anchor="start" x="141" y="-43.8" font-family="Helvetica,sans-Serif" font-size="11.00" fill="#000000">&lt; 1</text>
<polygon fill="#ffffff" stroke="transparent" points="195,-37.7 195,-56.7 225,-56.7 225,-37.7 195,-37.7"/>
<polygon fill="none" stroke="#000000" points="195,-37.7 195,-56.7 225,-56.7 225,-37.7 195,-37.7"/>
<text text-anchor="start" x="215.8862" y="-43.8" font-family="Helvetica,sans-Serif" font-size="11.00" fill="#000000"> &#160;</text>
<polygon fill="#ffffff" stroke="transparent" points="225,-37.7 225,-56.7 264,-56.7 264,-37.7 225,-37.7"/>
<polygon fill="none" stroke="#000000" points="225,-37.7 225,-56.7 264,-56.7 264,-37.7 225,-37.7"/>
<text text-anchor="start" x="245.4053" y="-43.8" font-family="Helvetica,sans-Serif" font-size="11.00" fill="#000000">1 &gt;</text>
</a>
</g>
</g>
<!-- clinics -->
<g id="node2" class="node">
<title>clinics</title>
<g id="a_node2"><a xlink:href="../../tables/clinics.html" xlink:title="clinics" target="_top">
<polygon fill="#ffffff" stroke="transparent" points="8,-59.2 8,-120.2 89,-120.2 89,-59.2 8,-59.2"/>
<polygon fill="#f5f5f5" stroke="transparent" points="8.5,-96.7 8.5,-119.7 89.5,-119.7 89.5,-96.7 8.5,-96.7"/>
<polygon fill="none" stroke="#000000" points="8.5,-96.7 8.5,-119.7 89.5,-119.7 89.5,-96.7 8.5,-96.7"/>
<text text-anchor="start" x="13.5" y="-105.3" font-family="Helvetica,sans-Serif" font-weight="bold" font-size="11.00" fill="#000000">clinics</text>
<text text-anchor="start" x="55.0219" y="-104.8" font-family="Helvetica,sans-Serif" font-size="11.00" fill="#000000">[table]</text>
<polygon fill="none" stroke="#000000" points="8.5,-77.7 8.5,-96.7 89.5,-96.7 89.5,-77.7 8.5,-77.7"/>
<text text-anchor="start" x="11.5" y="-83.8" font-family="Helvetica,sans-Serif" font-size="11.00" fill="#000000">...</text>
<polygon fill="#ffffff" stroke="transparent" points="8.5,-58.7 8.5,-77.7 38.5,-77.7 38.5,-58.7 8.5,-58.7"/>
<polygon fill="none" stroke="#000000" points="8.5,-58.7 8.5,-77.7 38.5,-77.7 38.5,-58.7 8.5,-58.7"/>
<text text-anchor="start" x="11.5" y="-64.8" font-family="Helvetica,sans-Serif" font-size="11.00" fill="#000000"> &#160;</text>
<polygon fill="#ffffff" stroke="transparent" points="38.5,-58.7 38.5,-77.7 59.5,-77.7 59.5,-58.7 38.5,-58.7"/>
<polygon fill="none" stroke="#000000" points="38.5,-58.7 38.5,-77.7 59.5,-77.7 59.5,-58.7 38.5,-58.7"/>
<text text-anchor="start" x="50.3862" y="-64.8" font-family="Helvetica,sans-Serif" font-size="11.00" fill="#000000"> &#160;</text>
<polygon fill="#ffffff" stroke="transparent" points="59.5,-58.7 59.5,-77.7 89.5,-77.7 89.5,-58.7 59.5,-58.7"/>
<polygon fill="none" stroke="#000000" points="59.5,-58.7 59.5,-77.7 89.5,-77.7 89.5,-58.7 59.5,-58.7"/>
<text text-anchor="start" x="70.9053" y="-64.8" font-family="Helvetica,sans-Serif" font-size="11.00" fill="#000000">2 &gt;</text>
</a>
</g>
</g>
<!-- departments&#45;&gt;clinics -->
<g id="edge1" class="edge">
<title>departments:w&#45;&gt;clinics:e</title>
<path fill="none" stroke="#000000" d="M123.2829,-86.7C112.2886,-86.7 105.1615,-86.7 89.5,-86.7"/>
<polygon fill="#000000" stroke="#000000" points="130,-86.7001 138,-90.3 134,-86.7 138,-86.7 138,-86.7 138,-86.7 134,-86.7 138,-83.1 130,-86.7001 130,-86.7001"/>
<ellipse fill="none" stroke="#000000" cx="126.8" cy="-86.7001" rx="3.2" ry="3.2"/>
</g>
<!-- treatments -->
<g id="node3" class="node">
<title>treatments</title>
<g id="a_node3"><a xlink:href="../../tables/treatments.html" xlink:title="treatments" target="_top">
<polygon fill="#ffffff" stroke="transparent" points="313,-54.7 313,-188.7 520,-188.7 520,-54.7 313,-54.7"/>
<polygon fill="#f5f5f5" stroke="transparent" points="315.5,-163.7 315.5,-186.7 518.5,-186.7 518.5,-163.7 315.5,-163.7"/>
<polygon fill="none" stroke="#000000" points="315.5,-163.7 315.5,-186.7 518.5,-186.7 518.5,-163.7 315.5,-163.7"/>
<text text-anchor="start" x="320.5" y="-172.3" font-family="Helvetica,sans-Serif" font-weight="bold" font-size="11.00" fill="#000000">treatments</text>
<text text-anchor="start" x="483.5437" y="-171.8" font-family="Helvetica,sans-Serif" font-size="11.00" fill="#000000">[table]</text>
<polygon fill="none" stroke="#000000" points="315.5,-141.7 315.5,-163.7 434.5,-163.7 434.5,-141.7 315.5,-141.7"/>
<image xlink:href="../../images/primaryKeys.png" width="11px" height="12px" preserveAspectRatio="xMinYMin meet" x="320.5" y="-158.7"/>
<text text-anchor="start" x="335.5" y="-148.8" font-family="Helvetica,sans-Serif" font-size="11.00" fill="#000000">id</text>
<polygon fill="none" stroke="#000000" points="434.5,-141.7 434.5,-163.7 518.5,-163.7 518.5,-141.7 434.5,-141.7"/>
<text text-anchor="start" x="437.5" y="-149.4" font-family="Helvetica,sans-Serif" font-size="11.00" fill="#000000">serial[10]</text>
<polygon fill="none" stroke="#000000" points="315.5,-119.7 315.5,-141.7 434.5,-141.7 434.5,-119.7 315.5,-119.7"/>
<text text-anchor="start" x="335.5" y="-126.8" font-family="Helvetica,sans-Serif" font-size="11.00" fill="#000000">name</text>
<polygon fill="none" stroke="#000000" points="434.5,-119.7 434.5,-141.7 518.5,-141.7 518.5,-119.7 434.5,-119.7"/>
<text text-anchor="start" x="437.5" y="-127.4" font-family="Helvetica,sans-Serif" font-size="11.00" fill="#000000">varchar[256]</text>
<polygon fill="none" stroke="#000000" points="315.5,-97.7 315.5,-119.7 434.5,-119.7 434.5,-97.7 315.5,-97.7"/>
<image xlink:href="../../images/foreignKeys.png" width="11px" height="12px" preserveAspectRatio="xMinYMin meet" x="320.5" y="-114.7"/>
<text text-anchor="start" x="335.5" y="-104.8" font-family="Helvetica,sans-Serif" font-size="11.00" fill="#000000">department_id</text>
<polygon fill="none" stroke="#000000" points="434.5,-97.7 434.5,-119.7 518.5,-119.7 518.5,-97.7 434.5,-97.7"/>
<text text-anchor="start" x="437.5" y="-105.4" font-family="Helvetica,sans-Serif" font-size="11.00" fill="#000000">int4[10]</text>
<polygon fill="none" stroke="#000000" points="315.5,-75.7 315.5,-97.7 434.5,-97.7 434.5,-75.7 315.5,-75.7"/>
<text text-anchor="start" x="335.5" y="-82.8" font-family="Helvetica,sans-Serif" font-size="11.00" fill="#000000">created_at</text>
<polygon fill="none" stroke="#000000" points="434.5,-75.7 434.5,-97.7 518.5,-97.7 518.5,-75.7 434.5,-75.7"/>
<text text-anchor="start" x="437.3807" y="-83.4" font-family="Helvetica,sans-Serif" font-size="11.00" fill="#000000">timestamp[29,6]</text>
<polygon fill="#ffffff" stroke="transparent" points="315.5,-56.7 315.5,-75.7 379.5,-75.7 379.5,-56.7 315.5,-56.7"/>
<polygon fill="none" stroke="#000000" points="315.5,-56.7 315.5,-75.7 379.5,-75.7 379.5,-56.7 315.5,-56.7"/>
<text text-anchor="start" x="318.5" y="-62.8" font-family="Helvetica,sans-Serif" font-size="11.00" fill="#000000">&lt; 1</text>
<polygon fill="#ffffff" stroke="transparent" points="379.5,-56.7 379.5,-75.7 434.5,-75.7 434.5,-56.7 379.5,-56.7"/>
<polygon fill="none" stroke="#000000" points="379.5,-56.7 379.5,-75.7 434.5,-75.7 434.5,-56.7 379.5,-56.7"/>
<text text-anchor="start" x="425.3862" y="-62.8" font-family="Helvetica,sans-Serif" font-size="11.00" fill="#000000"> &#160;</text>
<polygon fill="#ffffff" stroke="transparent" points="434.5,-56.7 434.5,-75.7 518.5,-75.7 518.5,-56.7 434.5,-56.7"/>
<polygon fill="none" stroke="#000000" points="434.5,-56.7 434.5,-75.7 518.5,-75.7 518.5,-56.7 434.5,-56.7"/>
<text text-anchor="start" x="499.9053" y="-62.8" font-family="Helvetica,sans-Serif" font-size="11.00" fill="#000000">0 &gt;</text>
<polygon fill="none" stroke="#000000" stroke-width="2" points="314,-55.7 314,-187.7 519,-187.7 519,-55.7 314,-55.7"/>
</a>
</g>
</g>
<!-- treatments&#45;&gt;departments -->
<g id="edge2" class="edge">
<title>treatments:w&#45;&gt;departments:e</title>
<path fill="none" stroke="#000000" d="M301.0156,-108.7C288.6771,-108.7 281.1667,-108.7 264,-108.7"/>
<polygon fill="#000000" stroke="#000000" points="307.5,-108.7001 315.5,-112.3 311.5,-108.7 315.5,-108.7 315.5,-108.7 315.5,-108.7 311.5,-108.7 315.5,-105.1 307.5,-108.7001 307.5,-108.7001"/>
<ellipse fill="none" stroke="#000000" cx="304.3" cy="-108.7001" rx="3.2" ry="3.2"/>
</g>
</g>
</svg>
