<?xml version="1.0" encoding="UTF-8" standalone="no"?>
<!DOCTYPE svg PUBLIC "-//W3C//DTD SVG 1.1//EN"
 "http://www.w3.org/Graphics/SVG/1.1/DTD/svg11.dtd">
<!-- Generated by graphviz version 2.40.1 (20161225.0304)
 -->
<!-- Title: oneDegreeRelationshipsDiagram Pages: 1 -->
<svg width="406pt" height="201pt"
 viewBox="0.00 0.00 406.00 200.70" xmlns="http://www.w3.org/2000/svg" xmlns:xlink="http://www.w3.org/1999/xlink">
<g id="graph0" class="graph" transform="scale(1 1) rotate(0) translate(4 196.7)">
<title>oneDegreeRelationshipsDiagram</title>
<polygon fill="#ffffff" stroke="transparent" points="-4,4 -4,-196.7 402,-196.7 402,4 -4,4"/>
<text text-anchor="middle" x="72.4936" y="-7.3" font-family="Helvetica,sans-Serif" font-size="11.00" fill="#000000">Generated by SchemaSpy</text>
<!-- treatments -->
<g id="node1" class="node">
<title>treatments</title>
<g id="a_node1"><a xlink:href="../../tables/treatments.html" xlink:title="treatments" target="_top">
<polygon fill="#ffffff" stroke="transparent" points="183,-54.7 183,-188.7 390,-188.7 390,-54.7 183,-54.7"/>
<polygon fill="#f5f5f5" stroke="transparent" points="185.5,-163.7 185.5,-186.7 388.5,-186.7 388.5,-163.7 185.5,-163.7"/>
<polygon fill="none" stroke="#000000" points="185.5,-163.7 185.5,-186.7 388.5,-186.7 388.5,-163.7 185.5,-163.7"/>
<text text-anchor="start" x="190.5" y="-172.3" font-family="Helvetica,sans-Serif" font-weight="bold" font-size="11.00" fill="#000000">treatments</text>
<text text-anchor="start" x="353.5437" y="-171.8" font-family="Helvetica,sans-Serif" font-size="11.00" fill="#000000">[table]</text>
<polygon fill="none" stroke="#000000" points="185.5,-141.7 185.5,-163.7 304.5,-163.7 304.5,-141.7 185.5,-141.7"/>
<image xlink:href="../../images/primaryKeys.png" width="11px" height="12px" preserveAspectRatio="xMinYMin meet" x="190.5" y="-158.7"/>
<text text-anchor="start" x="205.5" y="-148.8" font-family="Helvetica,sans-Serif" font-size="11.00" fill="#000000">id</text>
<polygon fill="none" stroke="#000000" points="304.5,-141.7 304.5,-163.7 388.5,-163.7 388.5,-141.7 304.5,-141.7"/>
<text text-anchor="start" x="307.5" y="-149.4" font-family="Helvetica,sans-Serif" font-size="11.00" fill="#000000">serial[10]</text>
<polygon fill="none" stroke="#000000" points="185.5,-119.7 185.5,-141.7 304.5,-141.7 304.5,-119.7 185.5,-119.7"/>
<text text-anchor="start" x="205.5" y="-126.8" font-family="Helvetica,sans-Serif" font-size="11.00" fill="#000000">name</text>
<polygon fill="none" stroke="#000000" points="304.5,-119.7 304.5,-141.7 388.5,-141.7 388.5,-119.7 304.5,-119.7"/>
<text text-anchor="start" x="307.5" y="-127.4" font-family="Helvetica,sans-Serif" font-size="11.00" fill="#000000">varchar[256]</text>
<polygon fill="none" stroke="#000000" points="185.5,-97.7 185.5,-119.7 304.5,-119.7 304.5,-97.7 185.5,-97.7"/>
<image xlink:href="../../images/foreignKeys.png" width="11px" height="12px" preserveAspectRatio="xMinYMin meet" x="190.5" y="-114.7"/>
<text text-anchor="start" x="205.5" y="-104.8" font-family="Helvetica,sans-Serif" font-size="11.00" fill="#000000">department_id</text>
<polygon fill="none" stroke="#000000" points="304.5,-97.7 304.5,-119.7 388.5,-119.7 388.5,-97.7 304.5,-97.7"/>
<text text-anchor="start" x="307.5" y="-105.4" font-family="Helvetica,sans-Serif" font-size="11.00" fill="#000000">int4[10]</text>
<polygon fill="none" stroke="#000000" points="185.5,-75.7 185.5,-97.7 304.5,-97.7 304.5,-75.7 185.5,-75.7"/>
<text text-anchor="start" x="205.5" y="-82.8" font-family="Helvetica,sans-Serif" font-size="11.00" fill="#000000">created_at</text>
<polygon fill="none" stroke="#000000" points="304.5,-75.7 304.5,-97.7 388.5,-97.7 388.5,-75.7 304.5,-75.7"/>
<text text-anchor="start" x="307.3807" y="-83.4" font-family="Helvetica,sans-Serif" font-size="11.00" fill="#000000">timestamp[29,6]</text>
<polygon fill="#ffffff" stroke="transparent" points="185.5,-56.7 185.5,-75.7 249.5,-75.7 249.5,-56.7 185.5,-56.7"/>
<polygon fill="none" stroke="#000000" points="185.5,-56.7 185.5,-75.7 249.5,-75.7 249.5,-56.7 185.5,-56.7"/>
<text text-anchor="start" x="188.5" y="-62.8" font-family="Helvetica,sans-Serif" font-size="11.00" fill="#000000">&lt; 1</text>
<polygon fill="#ffffff" stroke="transparent" points="249.5,-56.7 249.5,-75.7 304.5,-75.7 304.5,-56.7 249.5,-56.7"/>
<polygon fill="none" stroke="#000000" points="249.5,-56.7 249.5,-75.7 304.5,-75.7 304.5,-56.7 249.5,-56.7"/>
<text text-anchor="start" x="295.3862" y="-62.8" font-family="Helvetica,sans-Serif" font-size="11.00" fill="#000000"> &#160;</text>
<polygon fill="#ffffff" stroke="transparent" points="304.5,-56.7 304.5,-75.7 388.5,-75.7 388.5,-56.7 304.5,-56.7"/>
<polygon fill="none" stroke="#000000" points="304.5,-56.7 304.5,-75.7 388.5,-75.7 388.5,-56.7 304.5,-56.7"/>
<text text-anchor="start" x="369.9053" y="-62.8" font-family="Helvetica,sans-Serif" font-size="11.00" fill="#000000">0 &gt;</text>
<polygon fill="none" stroke="#000000" stroke-width="2" points="184,-55.7 184,-187.7 389,-187.7 389,-55.7 184,-55.7"/>
</a>
</g>
</g>
<!-- departments -->
<g id="node2" class="node">
<title>departments</title>
<g id="a_node2"><a xlink:href="../../tables/departments.html" xlink:title="departments" target="_top">
<polygon fill="#ffffff" stroke="transparent" points="8,-38.2 8,-143.2 134,-143.2 134,-38.2 8,-38.2"/>
<polygon fill="#f5f5f5" stroke="transparent" points="8,-119.7 8,-142.7 134,-142.7 134,-119.7 8,-119.7"/>
<polygon fill="none" stroke="#000000" points="8,-119.7 8,-142.7 134,-142.7 134,-119.7 8,-119.7"/>
<text text-anchor="start" x="13" y="-128.3" font-family="Helvetica,sans-Serif" font-weight="bold" font-size="11.00" fill="#000000">departments</text>
<text text-anchor="start" x="99.5219" y="-127.8" font-family="Helvetica,sans-Serif" font-size="11.00" fill="#000000">[table]</text>
<polygon fill="none" stroke="#000000" points="8,-97.7 8,-119.7 134,-119.7 134,-97.7 8,-97.7"/>
<image xlink:href="../../images/primaryKeys.png" width="11px" height="12px" preserveAspectRatio="xMinYMin meet" x="13" y="-114.7"/>
<text text-anchor="start" x="37" y="-104.8" font-family="Helvetica,sans-Serif" font-size="11.00" fill="#000000">id</text>
<polygon fill="none" stroke="#000000" points="8,-75.7 8,-97.7 134,-97.7 134,-75.7 8,-75.7"/>
<image xlink:href="../../images/foreignKeys.png" width="11px" height="12px" preserveAspectRatio="xMinYMin meet" x="13" y="-92.7"/>
<text text-anchor="start" x="37" y="-82.8" font-family="Helvetica,sans-Serif" font-size="11.00" fill="#000000">clinic_id</text>
<polygon fill="none" stroke="#000000" points="8,-56.7 8,-75.7 134,-75.7 134,-56.7 8,-56.7"/>
<text text-anchor="start" x="11" y="-62.8" font-family="Helvetica,sans-Serif" font-size="11.00" fill="#000000">...</text>
<polygon fill="#ffffff" stroke="transparent" points="8,-37.7 8,-56.7 65,-56.7 65,-37.7 8,-37.7"/>
<polygon fill="none" stroke="#000000" points="8,-37.7 8,-56.7 65,-56.7 65,-37.7 8,-37.7"/>
<text text-anchor="start" x="11" y="-43.8" font-family="Helvetica,sans-Serif" font-size="11.00" fill="#000000">&lt; 1</text>
<polygon fill="#ffffff" stroke="transparent" points="65,-37.7 65,-56.7 95,-56.7 95,-37.7 65,-37.7"/>
<polygon fill="none" stroke="#000000" points="65,-37.7 65,-56.7 95,-56.7 95,-37.7 65,-37.7"/>
<text text-anchor="start" x="85.8862" y="-43.8" font-family="Helvetica,sans-Serif" font-size="11.00" fill="#000000"> &#160;</text>
<polygon fill="#ffffff" stroke="transparent" points="95,-37.7 95,-56.7 134,-56.7 134,-37.7 95,-37.7"/>
<polygon fill="none" stroke="#000000" points="95,-37.7 95,-56.7 134,-56.7 134,-37.7 95,-37.7"/>
<text text-anchor="start" x="115.4053" y="-43.8" font-family="Helvetica,sans-Serif" font-size="11.00" fill="#000000">1 &gt;</text>
</a>
</g>
</g>
<!-- treatments&#45;&gt;departments -->
<g id="edge1" class="edge">
<title>treatments:w&#45;&gt;departments:e</title>
<path fill="none" stroke="#000000" d="M171.0156,-108.7C158.6771,-108.7 151.1667,-108.7 134,-108.7"/>
<polygon fill="#000000" stroke="#000000" points="177.5,-108.7001 185.5,-112.3 181.5,-108.7 185.5,-108.7 185.5,-108.7 185.5,-108.7 181.5,-108.7 185.5,-105.1 177.5,-108.7001 177.5,-108.7001"/>
<ellipse fill="none" stroke="#000000" cx="174.3" cy="-108.7001" rx="3.2" ry="3.2"/>
</g>
</g>
</svg>
